<svg width="39" height="38" viewBox="0 0 39 38" fill="none" xmlns="http://www.w3.org/2000/svg">
<path d="M14.7889 25.7323H11.1352V18.5939C11.1352 17.7234 11.1932 16.9689 11.1932 16.2145C10.9612 16.5046 10.6713 16.7948 10.3813 17.085L8.87338 18.3618L7.01752 16.0403L11.5992 12.268H14.8469L14.7889 25.7323Z" fill="#2A2E37"/>
<path d="M22.6764 12.094C24.0683 12.094 25.1702 12.3841 25.9822 12.9645C26.7941 13.5448 27.1421 14.3574 27.1421 15.402C27.1421 16.0984 26.9681 16.7368 26.5622 17.3172C26.2142 17.8395 25.6342 18.3618 24.8223 18.71C25.8082 19.2904 26.5042 19.8708 26.9101 20.3931C27.3161 20.9734 27.4901 21.5538 27.4901 22.1922C27.4901 23.4109 27.0841 24.3395 26.2142 24.9779C25.3442 25.6163 24.1843 25.9645 22.6184 25.9645C21.0526 25.9645 19.8346 25.6163 19.0227 24.9779C18.2108 24.3395 17.8048 23.4109 17.8048 22.2502C17.8048 21.4958 17.9788 20.7993 18.3848 20.219C18.7907 19.6966 19.3707 19.1743 20.2406 18.71C19.5447 18.2458 19.0227 17.7234 18.6747 17.1431C18.3268 16.6208 18.2108 15.9824 18.2108 15.344C18.2108 14.2993 18.6167 13.5448 19.3707 12.9645C20.1246 12.3261 21.2265 12.094 22.6764 12.094ZM21.0526 22.0761C21.0526 22.4824 21.4432 23.3631 22.5604 23.3529C23.6777 23.3426 24.1958 22.6806 24.1843 22.1341C24.1728 21.5877 23.8696 21.318 23.553 20.9918C23.2363 20.6656 23.1212 20.5792 22.6184 20.277C22.0965 20.5672 21.9479 20.6774 21.6435 20.9918C21.3392 21.3062 21.0526 21.7279 21.0526 22.0761ZM22.6184 14.7056C22.3169 14.7106 21.9916 14.8266 21.8192 14.9923C21.6468 15.1581 21.5165 15.402 21.5165 15.6922C21.5165 16.2145 21.8645 16.6788 22.5604 17.085C23.0244 16.8529 23.2564 16.6208 23.4304 16.3886C23.6044 16.1565 23.6624 15.9243 23.6624 15.6922C23.6624 15.402 23.5996 15.2112 23.4055 14.9958C23.2114 14.7804 22.92 14.7006 22.6184 14.7056Z" fill="#2A2E37"/>
<path d="M33.2317 20.2188H29.9837V17.8394H33.2317V14.5894H35.5514V17.8394H38.8571V20.2188H35.6094V23.4108H33.2897V20.2188H33.2317Z" fill="#2A2E37"/>
<g opacity="0.7">
<path d="M32.7097 26.951C29.9257 32.0581 24.5902 35.4824 18.3847 35.4824C9.39531 35.4824 2.08785 28.0539 2.08785 19.0001C2.08785 9.94657 9.39531 2.518 18.3847 2.518C24.5322 2.518 29.9257 5.94211 32.7097 11.0493H35.0294C32.0717 4.7814 25.7501 0.428711 18.3847 0.428711C8.2354 0.428711 0 8.72783 0 19.0001C0 29.2724 8.2354 37.5716 18.3847 37.5716C25.6921 37.5716 32.0717 33.219 35.0294 26.951H32.7097Z" fill="#FF002E" fill-opacity="0.7"/>
</g>
</svg>
