<svg width="160" height="88" viewBox="0 0 160 88" fill="none" xmlns="http://www.w3.org/2000/svg">
<circle cx="38" cy="44" r="20" fill="#F89B2B"/>
<path fill-rule="evenodd" clip-rule="evenodd" d="M31.9117 34.4836L31.9265 34.4876C31.8555 34.5384 31.8694 34.5248 31.9117 34.4836ZM32.0563 34.5212L32.1009 34.3606C32.0175 34.4216 31.9617 34.4625 31.9265 34.4876C31.9698 34.499 32.0131 34.5102 32.0563 34.5212ZM32.0563 34.5212C31.9766 34.8101 31.8968 35.1082 31.817 35.4063L31.817 35.4063C31.7224 35.7601 31.6278 36.1138 31.5331 36.4521C31.47 36.5751 31.5331 36.6366 31.6593 36.6366C31.7583 36.6608 31.8597 36.6849 31.963 36.7095L31.9631 36.7095L31.9631 36.7095C32.3868 36.8103 32.8432 36.9189 33.2997 37.0672C33.8675 37.2518 34.183 37.8054 34.0568 38.2975C33.2997 41.4963 32.4795 44.6335 31.6593 47.7707C31.5962 48.2013 31.2177 48.4474 30.7129 48.3243C30.2713 48.2628 29.7666 48.1398 29.3249 48.0168C29.1356 48.0168 29.0726 48.0168 29.0095 48.2013C28.8202 48.6934 28.5678 49.247 28.3155 49.8007C28.2524 49.9237 28.205 50.0313 28.1577 50.139C28.1104 50.2466 28.0631 50.3543 28 50.4773C29.5142 50.8464 30.9653 51.2155 32.4164 51.5846L32.4164 51.5846C32.4164 51.6567 32.3948 51.7076 32.3768 51.7498C32.3641 51.7797 32.3533 51.8052 32.3533 51.8306C32.0379 52.8149 31.7855 53.8606 31.5331 54.9063C31.47 55.0294 31.47 55.0909 31.6593 55.1524C32.2902 55.2754 32.9211 55.3985 33.5521 55.583C33.7188 55.6372 33.7386 55.5959 33.7842 55.5012C33.7903 55.4884 33.7969 55.4746 33.8044 55.46C33.8675 55.1832 33.9464 54.9064 34.0252 54.6295C34.1041 54.3527 34.183 54.0759 34.2461 53.7991C34.3091 53.5223 34.388 53.2455 34.4669 52.9687C34.5457 52.6918 34.6246 52.415 34.6877 52.1382C35.2555 52.2612 35.7603 52.3843 36.265 52.5073C36.3559 52.5516 36.3486 52.596 36.3373 52.6633C36.333 52.6894 36.3281 52.719 36.3281 52.7534C36.0126 53.7376 35.7603 54.7833 35.5079 55.8291C35.4448 55.9521 35.4448 56.0136 35.6341 56.0751C35.918 56.1366 36.2177 56.2135 36.5174 56.2904L36.5174 56.2904C36.817 56.3673 37.1167 56.4442 37.4006 56.5057C37.7025 56.6235 37.7155 56.5722 37.7714 56.3519L37.7792 56.3212C37.9054 55.8291 38.0316 55.3216 38.1577 54.8141C38.2839 54.3066 38.4101 53.7991 38.5363 53.307C38.5994 53.1224 38.7256 53.0609 38.9148 53.1224C40.1767 53.307 41.4385 53.43 42.7634 53.2455C43.7729 53.1224 44.6562 52.6918 45.3502 51.8922C45.918 51.2155 46.2334 50.4773 46.4858 49.6161C46.6751 48.9395 46.7382 48.2013 46.612 47.5246C46.3596 46.6634 45.8549 45.9868 45.0978 45.4332C44.9716 45.3409 44.8454 45.264 44.7192 45.1871C44.5931 45.1102 44.4669 45.0333 44.3407 44.941C44.4146 44.941 44.4669 44.9199 44.5102 44.9025C44.5408 44.8901 44.5669 44.8795 44.5931 44.8795C45.0978 44.695 45.6025 44.4489 45.9811 44.0799C46.4858 43.5877 46.7382 42.9726 46.9274 42.2959C47.1798 41.3117 47.1167 40.3275 46.5489 39.4048C46.1073 38.7896 45.5394 38.2975 44.9085 37.9284L42.8265 37.0057C42.6372 36.9442 42.5741 36.8827 42.6372 36.6981C42.7634 36.3906 42.8265 36.083 42.8896 35.7754C43.0789 35.0373 43.2681 34.2991 43.4574 33.4994C43.4259 33.4994 43.4101 33.484 43.3943 33.4687C43.3785 33.4533 43.3628 33.4379 43.3312 33.4379C43.0322 33.3584 42.745 33.2903 42.4643 33.2238C42.0936 33.1359 41.7345 33.0508 41.3754 32.9458C41.2492 32.8843 41.1861 32.9458 41.1861 33.0688L40.9968 33.807C40.7445 34.6067 40.5552 35.3448 40.3659 36.1445C40.3449 36.165 40.3239 36.1924 40.3028 36.2197C40.2608 36.2744 40.2187 36.3291 40.1767 36.3291C39.9243 36.2676 39.6562 36.2061 39.3881 36.1445L39.388 36.1445C39.1199 36.083 38.8517 36.0215 38.5994 35.96C38.6625 35.8369 38.6625 35.7754 38.6625 35.7139C38.7886 35.2218 38.9148 34.7143 39.041 34.2068L39.041 34.2068C39.1672 33.6993 39.2934 33.1918 39.4196 32.6997C39.4827 32.5767 39.4827 32.5152 39.2934 32.4537C38.6625 32.3306 38.0946 32.2076 37.4637 32.0231C37.2744 31.9616 37.2114 32.0231 37.1483 32.2076C37.0221 32.7305 36.8959 33.238 36.7697 33.7455C36.6435 34.253 36.5174 34.7604 36.3912 35.2833C36.3281 35.4679 36.265 35.5294 36.0757 35.4679C35.7287 35.3756 35.3817 35.2987 35.0347 35.2218C34.6877 35.1449 34.3407 35.068 33.9937 34.9757C33.6467 34.8835 33.2997 34.8066 32.9527 34.7297L32.9527 34.7297C32.6539 34.6635 32.3551 34.5973 32.0563 34.5212ZM35.1294 49.6777C35.1925 49.6777 35.2556 49.7392 35.2556 49.7392C35.4137 49.7777 35.5733 49.8178 35.7342 49.8581L35.7343 49.8581C36.601 50.0755 37.5056 50.3024 38.4102 50.3543C39.1673 50.4158 39.8613 50.4158 40.5553 50.1698C41.754 49.8007 42.2587 48.2628 41.5647 47.2786C41.2493 46.7865 40.7446 46.4789 40.2398 46.1714C39.1375 45.5743 37.8569 45.3249 36.6288 45.0858L36.5174 45.0641C36.3449 45.008 36.3296 45.0542 36.2805 45.2025C36.2757 45.2169 36.2706 45.2323 36.2651 45.2486C36.202 45.5562 36.1231 45.8484 36.0442 46.1406C35.9654 46.4328 35.8865 46.725 35.8234 47.0326C35.6796 47.5233 35.5563 48.014 35.4301 48.516L35.4301 48.5161C35.3349 48.8952 35.238 49.2807 35.1294 49.6777ZM41.123 43.2802C40.8706 43.3417 40.5551 43.4032 40.429 43.4032C39.6968 43.4032 39.0641 43.3061 38.4107 43.2058C38.1633 43.1679 37.9129 43.1294 37.6529 43.0956C37.5268 43.0649 37.4163 43.0341 37.3059 43.0034C37.1955 42.9726 37.0851 42.9419 36.9589 42.9111C36.8327 42.8496 36.7697 42.7881 36.8327 42.665C37.2113 41.3732 37.5268 40.143 37.8422 38.8512C37.9053 38.6666 37.9684 38.6051 38.1577 38.6666C38.3456 38.7155 38.531 38.7619 38.7144 38.8078C39.4548 38.9932 40.1627 39.1705 40.8706 39.4663C41.4384 39.7124 42.0062 40.0815 42.3217 40.6351C42.9526 41.6808 42.3217 43.0341 41.123 43.2802Z" fill="white"/>
<path fill-rule="evenodd" clip-rule="evenodd" d="M74.8344 40.0492C75.6455 40.0492 76.3463 40.1945 76.9353 40.4799C77.527 40.7681 78.0152 41.1564 78.4069 41.6446C78.7933 42.1354 79.0808 42.709 79.2665 43.3664C79.451 44.0256 79.5435 44.7343 79.5435 45.4929C79.5435 46.6582 79.33 47.7592 78.8989 48.797C78.4679 49.8363 77.883 50.7378 77.1391 51.5068C76.3957 52.2748 75.518 52.8803 74.5058 53.3276C73.4952 53.7752 72.3965 53.9991 71.2168 53.9991C71.0642 53.9991 70.796 53.9947 70.4172 53.9869C70.0383 53.979 69.6029 53.94 69.1152 53.874C68.6245 53.8056 68.1056 53.7043 67.5576 53.5686C67.01 53.4355 66.4898 53.2488 66 53.0119L70.38 34.608L74.3029 34L72.7347 40.5309C73.0704 40.3796 73.4086 40.2624 73.7462 40.177C74.0841 40.093 74.4467 40.0492 74.8344 40.0492ZM71.5437 50.8869C72.1345 50.8869 72.6912 50.7416 73.2142 50.4562C73.7387 50.1705 74.1914 49.7847 74.5705 49.3043C74.9497 48.8217 75.2498 48.2781 75.4686 47.6707C75.6874 47.0634 75.7981 46.4297 75.7981 45.7705C75.7981 44.9606 75.6627 44.3288 75.3929 43.8721C75.1232 43.4173 74.624 43.1885 73.8991 43.1885C73.6615 43.1885 73.3555 43.2338 72.976 43.3148C72.5953 43.4008 72.2546 43.5793 71.9492 43.8478L70.2793 50.7835C70.38 50.8013 70.4691 50.8182 70.545 50.8341C70.6194 50.8513 70.7016 50.8635 70.7835 50.8719C70.8701 50.8816 70.9692 50.8866 71.0889 50.8866L71.2673 50.8867L71.5437 50.8869ZM83.6117 53.6467H79.8647L83.0291 40.3314H86.8017L83.6117 53.6467ZM85.4351 38.7091C84.9121 38.7091 84.4379 38.5534 84.0172 38.2414C83.593 37.9313 83.3829 37.454 83.3829 36.8107C83.3829 36.4569 83.4548 36.1249 83.5974 35.8117C83.7421 35.4991 83.9312 35.23 84.1681 35.0011C84.4048 34.7742 84.6789 34.5929 84.9902 34.4563C85.3035 34.3219 85.6367 34.2547 85.9918 34.2547C86.5144 34.2547 86.9861 34.4104 87.4084 34.7223C87.8292 35.0358 88.0408 35.5132 88.0408 36.153C88.0408 36.5081 87.9692 36.8413 87.8254 37.1539C87.6826 37.4665 87.4935 37.7357 87.2565 37.9645C87.0218 38.1917 86.7451 38.3724 86.4344 38.5077C86.1209 38.6443 85.7889 38.7091 85.4351 38.7091ZM94.0059 36.406L90.0813 37.014L87.5991 47.4941C87.3968 48.355 87.2796 49.1724 87.2449 49.9501C87.2115 50.7259 87.3312 51.4146 87.5991 52.0119C87.8707 52.6115 88.3246 53.085 88.9666 53.4317C89.6096 53.7759 90.5121 53.9487 91.6761 53.9487C92.4858 53.9487 93.1863 53.8831 93.778 53.7468C94.3688 53.6124 94.9171 53.4526 95.4235 53.267L95.144 50.3799C94.7558 50.5165 94.3722 50.6209 93.9937 50.6959C93.6129 50.7722 93.2191 50.8106 92.8149 50.8106C92.3241 50.8106 91.95 50.7422 91.6887 50.6062C91.4261 50.4724 91.2451 50.2833 91.1444 50.0379C91.0432 49.7932 91.0003 49.5025 91.0188 49.1639C91.035 48.827 91.0932 48.4644 91.1957 48.0761L92.3085 43.4186H96.4862L97.2452 40.3308H93.0422L94.0059 36.406ZM97.0832 48.3296C97.0832 47.1828 97.2689 46.1012 97.6399 45.0887C98.0103 44.0753 98.5439 43.1891 99.2363 42.4286C99.9262 41.6718 100.767 41.0723 101.756 40.6322C102.741 40.1946 103.843 39.9739 105.058 39.9739C105.819 39.9739 106.498 40.0458 107.096 40.1899C107.696 40.3352 108.239 40.5231 108.73 40.7588L107.438 43.6971C107.1 43.5602 106.75 43.4395 106.387 43.3301C106.025 43.2185 105.582 43.1648 105.059 43.1648C103.808 43.1648 102.819 43.5958 102.083 44.4551C101.35 45.3151 100.981 46.4726 100.981 47.9245C100.981 48.7851 101.167 49.4809 101.539 50.0133C101.91 50.5456 102.595 50.8103 103.589 50.8103C104.08 50.8103 104.554 50.7591 105.007 50.6591C105.464 50.5578 105.868 50.4302 106.223 50.2796L106.503 53.2917C106.029 53.4755 105.506 53.6415 104.933 53.7868C104.359 53.9272 103.675 54 102.882 54C101.835 54 100.949 53.8468 100.224 53.5452C99.4985 53.2388 98.8993 52.8322 98.4273 52.317C97.9528 51.8006 97.6121 51.1976 97.4014 50.5056C97.1907 49.8141 97.0832 49.0877 97.0832 48.3296ZM111.403 53.5939C112.062 53.8637 112.838 54 113.733 54C114.965 54 116.05 53.7418 116.986 53.2273C117.923 52.7128 118.704 52.0504 119.327 51.2411C119.953 50.4299 120.426 49.5172 120.745 48.5078C121.064 47.4935 121.225 46.4794 121.225 45.4682C121.225 44.6589 121.116 43.919 120.896 43.2539C120.677 42.5862 120.351 42.0101 119.923 41.5193C119.49 41.031 118.943 40.6494 118.278 40.3802C117.61 40.1105 116.837 39.9739 115.959 39.9739C114.762 39.9739 113.697 40.2321 112.771 40.7453C111.844 41.262 111.056 41.9247 110.418 42.7353C109.775 43.5446 109.289 44.4551 108.961 45.4685C108.632 46.4798 108.469 47.4938 108.469 48.5081C108.469 49.3168 108.575 50.0548 108.796 50.7213C109.017 51.388 109.34 51.9666 109.771 52.4549C110.201 52.9456 110.746 53.3242 111.403 53.5939ZM114.138 43.6449C114.559 43.3264 115.05 43.1651 115.605 43.1651C116.314 43.1651 116.804 43.402 117.074 43.8731C117.345 44.346 117.48 45.0056 117.48 45.8483C117.48 46.371 117.408 46.9252 117.267 47.5063C117.122 48.089 116.906 48.6257 116.619 49.1139C116.331 49.6034 115.976 50.0089 115.557 50.3287C115.134 50.6506 114.645 50.8107 114.088 50.8107C113.379 50.8107 112.891 50.5737 112.619 50.1027C112.351 49.6291 112.215 48.9711 112.215 48.1262C112.215 47.6026 112.285 47.0515 112.429 46.4685C112.573 45.8868 112.787 45.3516 113.076 44.8609C113.362 44.3723 113.716 43.9672 114.138 43.6449ZM125.307 53.6467H121.557L124.721 40.3314H128.495L125.307 53.6467ZM127.127 38.7091C126.605 38.7091 126.131 38.5534 125.711 38.2414C125.289 37.9313 125.077 37.454 125.077 36.8107C125.077 36.4569 125.15 36.1249 125.292 35.8117C125.435 35.4991 125.626 35.23 125.863 35.0011C126.098 34.7742 126.375 34.5929 126.685 34.4563C126.997 34.3219 127.33 34.2547 127.684 34.2547C128.208 34.2547 128.681 34.4104 129.102 34.7223C129.524 35.0358 129.737 35.5132 129.737 36.153C129.737 36.5081 129.661 36.8413 129.52 37.1539C129.378 37.4665 129.188 37.7357 128.952 37.9645C128.714 38.1917 128.441 38.3724 128.129 38.5077C127.816 38.6443 127.483 38.7091 127.127 38.7091ZM132.14 40.6452C131.795 40.7539 131.477 40.8538 131.193 40.937L128.128 53.6452H131.901L134.357 43.3426C134.865 43.2414 135.362 43.1888 135.85 43.1888C136.357 43.1888 136.731 43.2861 136.978 43.4795C137.221 43.6762 137.378 43.93 137.445 44.2401C137.514 44.5539 137.518 44.9165 137.458 45.3279C137.399 45.743 137.319 46.1678 137.217 46.6073L135.547 53.6455H139.318L141.042 46.456C141.53 44.4655 141.4 42.895 140.648 41.7475C139.896 40.6 138.534 40.0245 136.558 40.0245C135.885 40.0245 135.28 40.0539 134.749 40.1142C134.218 40.1733 133.735 40.2496 133.307 40.3437C132.874 40.4349 132.487 40.5362 132.14 40.645L132.14 40.6452Z" fill="white"/>
</svg>
