<svg width="160" height="88" viewBox="0 0 160 88" fill="none" xmlns="http://www.w3.org/2000/svg">
<path d="M86.5565 41.0853C86.4034 40.9169 86.2503 40.7486 86.0977 40.5803C84.9034 39.341 83.4564 38.7213 81.7569 38.7213C80.0573 38.7213 78.6029 39.341 77.3934 40.5803C77.2403 40.7333 77.1025 40.9016 76.9801 41.0853C76.2145 42.0339 75.7705 43.1202 75.648 44.3442C75.6174 44.589 75.6021 44.8338 75.6021 45.0787C75.6021 46.6087 76.0614 47.9398 76.9801 49.0721C77.1025 49.2404 77.2403 49.4011 77.3934 49.5541C78.6029 50.8087 80.0573 51.436 81.7569 51.436C83.4564 51.436 84.9034 50.8087 86.0977 49.5541C86.2503 49.4011 86.4034 49.2404 86.5565 49.0721C87.4603 47.9398 87.9119 46.6087 87.9119 45.0787C87.9119 44.8338 87.904 44.589 87.889 44.3442C87.7509 43.1202 87.3072 42.0339 86.5565 41.0853ZM78.8402 45.0787C78.8402 44.8186 78.8556 44.5738 78.8862 44.3442C78.9934 43.5945 79.2613 42.9366 79.69 42.3705C80.2563 41.6208 80.9454 41.2459 81.7569 41.2459C82.5684 41.2459 83.2575 41.6208 83.8236 42.3705C84.268 42.9366 84.5435 43.5945 84.6508 44.3442C84.6809 44.5738 84.6966 44.8186 84.6966 45.0787C84.6966 46.1344 84.4054 47.0295 83.8236 47.7639C83.2575 48.5137 82.5684 48.8885 81.7569 48.8885C80.9454 48.8885 80.2563 48.5137 79.69 47.7639C79.1235 47.0295 78.8402 46.1344 78.8402 45.0787ZM97.1669 45.0787C97.1669 44.8338 97.1591 44.589 97.144 44.3442C96.9909 42.8907 96.4091 41.636 95.3986 40.5803C94.2658 39.3716 92.8954 38.7519 91.2875 38.7213H91.1729C90.8052 38.7366 90.4917 38.8667 90.2312 39.1115C89.9708 39.3869 89.8411 39.7159 89.8411 40.0983C89.8411 40.4809 89.9708 40.8022 90.2312 41.0623C90.4302 41.2612 90.6677 41.3912 90.9432 41.4525C91.0349 41.4371 91.1271 41.4295 91.2188 41.4295C91.3104 41.4295 91.4105 41.4371 91.5172 41.4525C92.1605 41.529 92.7194 41.8732 93.1938 42.4852C93.6225 43.0207 93.8902 43.6404 93.9975 44.3442C94.0283 44.5738 94.0433 44.8109 94.0433 45.0557C94.0433 46.0503 93.7606 46.8995 93.1938 47.6033C92.7037 48.2612 92.1147 48.6207 91.4255 48.682C91.3641 48.682 91.2953 48.682 91.2188 48.682C91.1422 48.682 91.0735 48.682 91.012 48.682C90.7214 48.7279 90.4609 48.8579 90.2312 49.0721C90.0473 49.271 89.9249 49.5005 89.864 49.7607C89.8484 49.8525 89.8411 49.9442 89.8411 50.036V50.059C89.8411 50.1508 89.8484 50.2426 89.864 50.3344C89.9099 50.5945 90.0323 50.824 90.2312 51.0229C90.4917 51.283 90.8052 51.4208 91.1729 51.436H91.2875C92.8954 51.4054 94.2658 50.7781 95.3986 49.5541C96.5773 48.33 97.1669 46.8382 97.1669 45.0787ZM108.857 39.9377C108.489 39.5705 108.091 39.2874 107.662 39.0885C107.08 38.8131 106.445 38.6754 105.756 38.6754C104.531 38.6754 103.49 39.0961 102.633 39.9377C102.525 40.0448 102.426 40.1519 102.334 40.259C102.319 39.8612 102.158 39.5169 101.852 39.2262C101.546 38.9355 101.186 38.7902 100.772 38.7902C100.344 38.7902 99.9686 38.9355 99.6473 39.2262C99.3717 39.5322 99.2337 39.8994 99.2337 40.3279V49.8754C99.2337 50.3038 99.3717 50.6634 99.6473 50.9541C99.9686 51.2601 100.344 51.4131 100.772 51.4131C101.186 51.4131 101.546 51.2601 101.852 50.9541C102.173 50.6634 102.334 50.3038 102.334 49.8754V43.4033C102.349 42.7759 102.579 42.2481 103.023 41.8197C103.467 41.3606 104.018 41.1312 104.677 41.1312C105.335 41.1312 105.886 41.3606 106.33 41.8197C106.621 42.0798 106.828 42.3858 106.95 42.7377L107.042 43.059C107.057 43.1661 107.065 43.2809 107.065 43.4033V49.8754C107.065 50.3038 107.203 50.6634 107.478 50.9541C107.8 51.2601 108.175 51.4131 108.604 51.4131C109.018 51.4131 109.377 51.2601 109.683 50.9541C110.005 50.6634 110.165 50.3038 110.165 49.8754V43.2426C110.165 43.1967 110.165 43.1508 110.165 43.1049V42.9213C110.15 41.7584 109.714 40.7639 108.857 39.9377ZM124.106 40.3279C124.106 39.8994 123.945 39.5322 123.623 39.2262C123.317 38.9355 122.958 38.7902 122.544 38.7902C122.115 38.7902 121.74 38.9355 121.419 39.2262C121.143 39.5322 121.006 39.8994 121.006 40.3279V40.3508C119.995 39.2492 118.778 38.6983 117.354 38.6983C115.869 38.6983 114.598 39.3104 113.542 40.5344C112.868 41.3301 112.409 42.2328 112.163 43.2426C112.072 43.5945 112.01 43.9617 111.98 44.3442C111.964 44.5585 111.957 44.7803 111.957 45.0098C111.957 45.2546 111.972 45.4994 112.003 45.7442C112.064 46.4787 112.233 47.1595 112.508 47.7869C112.753 48.3989 113.097 48.9574 113.542 49.4623C113.909 49.8907 114.299 50.2503 114.713 50.541C115.509 51.0612 116.389 51.3213 117.354 51.3213C118.762 51.3213 119.964 50.7858 120.96 49.7147C120.975 49.6842 120.99 49.6612 121.006 49.6459V51.3213C121.006 51.3672 121.006 51.4208 121.006 51.4819C120.867 51.9715 120.592 52.4 120.178 52.7672C119.551 53.3639 118.793 53.6623 117.905 53.6623C117.032 53.6623 116.282 53.3639 115.654 52.7672C115.517 52.6448 115.402 52.5224 115.31 52.4L115.287 52.377C115.287 52.3617 115.256 52.3081 115.195 52.2164C115.118 52.1246 115.019 52.0098 114.896 51.8721C114.759 51.7497 114.644 51.6502 114.552 51.5737C114.46 51.4819 114.261 51.436 113.955 51.436C113.572 51.436 113.243 51.5661 112.968 51.8262C112.784 52.0251 112.661 52.2546 112.6 52.5148V52.5377C112.585 52.6295 112.577 52.7213 112.577 52.8131C112.577 52.8896 112.585 52.9585 112.6 53.0196C112.6 53.0655 112.623 53.1574 112.669 53.2951C112.699 53.4327 112.738 53.5246 112.784 53.5705C112.815 53.6316 112.875 53.7158 112.968 53.8229C113.151 54.0677 113.366 54.2973 113.61 54.5114C114.82 55.6437 116.275 56.2098 117.974 56.2098C119.673 56.2098 121.12 55.6437 122.314 54.5114C123.095 53.8076 123.623 52.9967 123.899 52.0787C124.006 51.7267 124.075 51.3672 124.106 51V40.3279ZM116.412 42.118C116.428 42.1027 116.443 42.0874 116.458 42.0721C116.948 41.4907 117.522 41.2 118.18 41.2C118.962 41.2 119.612 41.5749 120.133 42.3246C120.561 42.906 120.829 43.5792 120.937 44.3442C120.952 44.5585 120.96 44.7803 120.96 45.0098C120.96 45.1322 120.96 45.2623 120.96 45.4C120.898 46.2874 120.623 47.0448 120.133 47.6721C119.995 47.871 119.857 48.0393 119.72 48.177C119.275 48.5901 118.762 48.7967 118.18 48.7967C117.538 48.7967 116.979 48.5213 116.504 47.9705C116.412 47.8787 116.328 47.7792 116.252 47.6721C115.746 46.9989 115.478 46.1727 115.447 45.1934C115.447 45.1322 115.447 45.071 115.447 45.0098C115.447 44.7803 115.463 44.5585 115.494 44.3442C115.585 43.5792 115.838 42.906 116.252 42.3246C116.297 42.2481 116.351 42.1792 116.412 42.118ZM136.186 40.5574C135.772 40.1136 135.321 39.7541 134.831 39.4787C133.943 38.9585 132.948 38.6983 131.845 38.6983C130.146 38.6983 128.691 39.318 127.482 40.5574C126.456 41.6284 125.874 42.8907 125.736 44.3442C125.706 44.5738 125.691 44.8109 125.691 45.0557C125.691 46.8153 126.288 48.3071 127.482 49.5311C128.691 50.7858 130.146 51.4131 131.845 51.4131C132.948 51.4131 133.943 51.153 134.831 50.6328C135.321 50.3421 135.772 49.9749 136.186 49.5311C137.395 48.3071 138 46.8153 138 45.0557C138 44.8109 137.992 44.5738 137.977 44.3442C137.824 42.8907 137.227 41.6284 136.186 40.5574ZM134.739 44.3442C134.77 44.5738 134.785 44.8109 134.785 45.0557C134.785 46.1115 134.494 47.0065 133.912 47.7409C133.346 48.4907 132.657 48.8655 131.845 48.8655C131.034 48.8655 130.345 48.4907 129.778 47.7409C129.212 47.0065 128.929 46.1115 128.929 45.0557C128.929 44.8109 128.944 44.5738 128.975 44.3442C129.082 43.5945 129.35 42.9289 129.778 42.3475C130.345 41.5978 131.034 41.2229 131.845 41.2229C132.657 41.2229 133.346 41.5978 133.912 42.3475C134.356 42.9289 134.632 43.5945 134.739 44.3442ZM30.9107 45.0098C30.8342 45.0098 30.7652 45.0175 30.704 45.0328C30.4131 45.0634 30.1529 45.1858 29.9232 45.4C29.6629 45.6754 29.5328 46.0043 29.5328 46.3869C29.5328 46.7694 29.6629 47.0907 29.9232 47.3508C30.1529 47.5803 30.4208 47.718 30.727 47.7639C30.7882 47.7639 30.8495 47.7639 30.9107 47.7639C31.2935 47.7639 31.615 47.6262 31.8753 47.3508C32.1509 47.0907 32.2886 46.7694 32.2886 46.3869C32.2886 46.0043 32.1509 45.6754 31.8753 45.4C31.615 45.1399 31.2935 45.0098 30.9107 45.0098ZM38.3516 43.4033C38.1373 43.0513 37.877 42.7224 37.5708 42.4164C36.5144 41.3301 35.2359 40.7869 33.7355 40.7869C32.8628 40.7869 32.0667 40.9705 31.3471 41.3377V36.8623C31.3471 36.4951 31.2093 36.1814 30.9337 35.9213C30.6734 35.6765 30.3672 35.5541 30.0151 35.5541C29.6476 35.5541 29.3261 35.6765 29.0505 35.9213C28.8208 36.1814 28.706 36.4951 28.706 36.8623V42.0721L28.729 42.2099C28.7443 42.5006 28.8668 42.7606 29.0964 42.9902C29.1577 43.0513 29.2265 43.1126 29.3031 43.1737C29.4715 43.2961 29.6706 43.3727 29.9002 43.4033H30.0151C31.3471 43.3268 32.6638 43.3268 33.9652 43.4033C34.501 43.5257 34.9756 43.8011 35.389 44.2295C35.4197 44.2601 35.458 44.2983 35.5039 44.3442C36.0091 44.9103 36.2617 45.5836 36.2617 46.3639C36.2617 47.2054 35.9708 47.9093 35.389 48.4754C35.0828 48.7967 34.7536 49.0262 34.4015 49.1639L30.038 49.3475C29.7471 49.3475 29.4945 49.4164 29.2801 49.5541C29.2189 49.6 29.1577 49.6459 29.0964 49.6918C28.8361 49.9672 28.706 50.2885 28.706 50.6557C28.706 51.0076 28.8361 51.3136 29.0964 51.5737C29.3567 51.8491 29.6706 51.9869 30.038 51.9869L29.8084 51.9639C32.0131 52.0098 33.2992 52.0328 33.6666 52.0328C35.213 51.9869 36.5144 51.4131 37.5708 50.3114C37.7239 50.1584 37.8617 50.0054 37.9842 49.8525C38.1067 49.6994 38.2215 49.5388 38.3287 49.3705C38.3287 49.3552 38.3363 49.3475 38.3516 49.3475C38.8875 48.4754 39.1554 47.4809 39.1554 46.3639C39.1554 45.6448 39.0406 44.9716 38.811 44.3442C38.6885 44.0229 38.5353 43.7093 38.3516 43.4033ZM63.5221 40.4885C62.4657 39.2645 61.1949 38.6525 59.7098 38.6524C58.2859 38.6525 57.0687 39.2033 56.0582 40.3049V35.9213C56.0582 35.4929 55.8975 35.1257 55.5759 34.8196C55.2697 34.5289 54.91 34.3836 54.4966 34.3836C54.0678 34.3836 53.6928 34.5289 53.3713 34.8196C53.0957 35.1257 52.9578 35.4929 52.9578 35.9213V49.8754C52.9578 50.3038 53.0957 50.6634 53.3713 50.9541C53.6928 51.2601 54.0678 51.4131 54.4966 51.4131C54.91 51.4131 55.2697 51.2601 55.5759 50.9541C55.8975 50.6634 56.0582 50.3038 56.0582 49.8754V49.6C57.0687 50.7169 58.2859 51.2754 59.7098 51.2754C61.1949 51.2754 62.4657 50.6557 63.5221 49.4164C64.5785 48.1924 65.1068 46.7082 65.1067 44.9639C65.1068 44.7497 65.0991 44.5431 65.0837 44.3442C64.9766 42.8601 64.4561 41.5749 63.5221 40.4885ZM60.8122 42.2787C61.2408 42.8601 61.5011 43.5486 61.593 44.3442C61.6083 44.5431 61.6159 44.7497 61.6159 44.9639C61.6159 46.0197 61.348 46.9071 60.8122 47.6262C60.2763 48.3759 59.6332 48.7508 58.883 48.7508C58.1022 48.7508 57.4515 48.3759 56.9309 47.6262C56.3798 46.9071 56.1042 46.0197 56.1042 44.9639C56.1042 44.7497 56.1194 44.5431 56.1501 44.3442C56.2266 43.5486 56.4869 42.8601 56.9309 42.2787C57.4515 41.529 58.1022 41.1541 58.883 41.1541C59.6332 41.1541 60.2763 41.529 60.8122 42.2787ZM72.3639 38.7213H72.2262C70.6185 38.7519 69.2482 39.3716 68.1152 40.5803C67.1048 41.636 66.5306 42.8907 66.3928 44.3442C66.3622 44.589 66.3469 44.8338 66.3469 45.0787C66.3469 46.8382 66.9363 48.33 68.1152 49.5541C69.2482 50.7781 70.6185 51.4054 72.2262 51.436H72.3639C72.7161 51.4208 73.0223 51.283 73.2826 51.0229C73.4816 50.824 73.6041 50.5945 73.65 50.3344C73.6653 50.2426 73.673 50.1508 73.673 50.059V50.036C73.673 49.9442 73.6653 49.8525 73.65 49.7607C73.5888 49.5005 73.4663 49.271 73.2826 49.0721C73.0529 48.8579 72.7926 48.7279 72.5017 48.682C72.4405 48.682 72.3716 48.682 72.295 48.682C72.2185 48.682 72.1496 48.682 72.0883 48.682C71.8893 48.6513 71.7055 48.6131 71.5372 48.5672C71.0778 48.3989 70.6721 48.0776 70.32 47.6033C69.7535 46.8995 69.4702 46.0503 69.4702 45.0557C69.4702 44.8109 69.4856 44.5738 69.5162 44.3442C69.6233 43.6404 69.8913 43.0207 70.32 42.4852C70.7946 41.8732 71.3611 41.529 72.0194 41.4525C72.096 41.4677 72.1879 41.4754 72.295 41.4754C72.4022 41.4754 72.5017 41.4677 72.5936 41.4525C72.8538 41.3912 73.0835 41.2612 73.2826 41.0623C73.5428 40.8022 73.673 40.4809 73.673 40.0983C73.673 39.7159 73.5428 39.3869 73.2826 39.1115C73.0223 38.8667 72.7161 38.7366 72.3639 38.7213ZM33.4829 30.023C33.2073 30.0076 32.924 30 32.6331 30C30.3978 30 28.3539 30.459 26.5013 31.377C25.154 32.0349 23.8985 32.9377 22.7349 34.0852C22.6737 34.1465 22.6124 34.2076 22.5512 34.2689C22.444 34.3913 22.3368 34.5137 22.2297 34.6361C22.0766 34.8503 22 35.1027 22 35.3935C22 35.7759 22.1301 36.0973 22.3904 36.3574C22.666 36.6328 22.9952 36.7705 23.3779 36.7705C23.6382 36.7705 23.8679 36.7093 24.0669 36.5869C24.2353 36.388 24.4191 36.189 24.6181 35.9901C25.2152 35.3935 25.8429 34.8809 26.5013 34.4524C28.3079 33.2743 30.3519 32.6853 32.6331 32.6853C32.924 32.6853 33.2073 32.6929 33.4829 32.7082C36.2388 32.8918 38.6196 33.9858 40.6252 35.9901C42.8453 38.2087 43.9553 40.8786 43.9553 44C43.9553 44.1224 43.9553 44.2372 43.9553 44.3442C43.9093 46.2109 43.45 47.9169 42.5773 49.4623C42.0721 50.365 41.4214 51.2065 40.6252 51.9869C38.4205 54.2055 35.7565 55.3147 32.6331 55.3147C29.5404 55.3147 26.8993 54.236 24.71 52.0787C24.6793 52.0481 24.6487 52.0174 24.6181 51.9869C24.4344 51.8033 24.2583 51.6197 24.0899 51.436C23.9062 51.3289 23.6918 51.2754 23.4468 51.2754C23.0641 51.2754 22.7349 51.4054 22.4593 51.6656C22.199 51.941 22.0689 52.2699 22.0689 52.6524C22.0689 52.9585 22.1531 53.2262 22.3215 53.4557C22.3828 53.5322 22.4593 53.6087 22.5512 53.6852C22.6124 53.7618 22.6737 53.8306 22.7349 53.8918C25.4755 56.6306 28.7749 58 32.6331 58C36.5067 58 39.8061 56.6306 42.5314 53.8918C43.8481 52.5759 44.8509 51.13 45.5399 49.5541C46.2289 47.9322 46.5963 46.1956 46.6423 44.3442C46.6423 44.2372 46.6423 44.1224 46.6423 44C46.6423 42.0109 46.2748 40.1672 45.5399 38.4689C44.8509 36.8776 43.8481 35.4164 42.5314 34.0852C40.0051 31.5607 36.989 30.2066 33.4829 30.023Z" fill="url(#paint0_linear)"/>
<defs>
<linearGradient id="paint0_linear" x1="20.3924" y1="44" x2="137.518" y2="44" gradientUnits="userSpaceOnUse">
<stop stop-color="#4EE073"/>
<stop offset="1" stop-color="#01D0B5"/>
</linearGradient>
</defs>
</svg>
