<svg width="160" height="88" viewBox="0 0 160 88" fill="none" xmlns="http://www.w3.org/2000/svg">
<path d="M127.547 21.4329H32.3085C31.2984 21.4329 30.4326 22.2987 30.4326 23.3088V65.0115C30.4326 66.0216 31.2984 66.8874 32.3085 66.8874H127.547C128.557 66.8874 129.423 66.0216 129.423 65.0115V23.3088C129.423 22.2987 128.557 21.4329 127.547 21.4329Z" fill="#021D49"/>
<path d="M96.0895 32.9769C95.8009 32.3997 95.5123 31.9668 94.5022 31.9668H91.6162C90.4618 31.9668 90.3175 32.3997 90.0289 32.9769C89.7403 33.5541 81.6594 55.4877 81.6594 55.4877C81.6594 55.4877 81.2265 56.4978 82.3809 56.4978C83.6797 56.4978 83.824 56.4978 84.4012 56.4978C84.9784 56.4978 85.5556 56.3535 85.8442 55.4877C86.1328 54.7662 87.2872 51.303 87.2872 51.303H98.6869C98.6869 51.303 99.8413 54.6219 100.13 55.4877C100.418 56.3535 101.14 56.4978 101.573 56.4978C102.15 56.4978 102.439 56.4978 103.593 56.4978C104.747 56.4978 104.315 55.4877 104.315 55.4877C104.315 55.4877 96.3781 33.5541 96.0895 32.9769ZM89.0188 47.4069L93.0592 36.0072L97.3882 47.4069H89.0188ZM75.0216 31.9668H66.075C65.3535 31.9668 65.2092 32.544 65.2092 32.9769C65.2092 33.4098 65.2092 55.4877 65.2092 55.4877C65.2092 56.3535 66.075 56.3535 66.2193 56.3535H68.5281C68.961 56.3535 69.2496 56.0649 69.2496 55.632V47.5512H75.0216C79.3506 47.5512 82.8138 44.088 82.8138 39.759C82.9581 35.43 79.3506 31.9668 75.0216 31.9668ZM75.0216 43.6551H69.2496V35.8629H75.0216C77.1861 35.8629 78.9177 37.5945 78.9177 39.759C78.9177 41.9235 77.1861 43.6551 75.0216 43.6551ZM127.98 21H31.8759C30.8658 21 30 21.8658 30 22.8759V65.5887C30 66.5988 30.8658 67.4646 31.8759 67.4646H128.124C129.134 67.4646 130 66.5988 130 65.5887V22.8759C129.856 21.8658 128.99 21 127.98 21ZM44.1414 35.1414H50.4906C52.0779 35.1414 53.5209 36.5844 53.5209 38.1717C53.5209 39.759 52.2222 41.202 50.4906 41.202H49.3362C48.759 41.202 48.4704 41.6349 48.4704 42.0678V45.6753C48.4704 46.2525 48.9033 46.5411 49.4805 46.5411H52.2222C53.9538 46.5411 55.3968 47.9841 55.3968 49.7157C55.3968 51.4473 54.0981 52.746 52.3665 52.8903H45.0072C44.43 52.8903 44.1414 52.6017 44.1414 52.0245V35.1414V35.1414ZM32.5974 24.4632C32.5974 24.0303 32.886 23.5974 33.4632 23.5974H38.5137V29.3694H32.7417V24.4632H32.5974ZM127.258 63.7128C127.258 64.1457 126.97 64.5786 126.392 64.7229H33.4632C33.0303 64.7229 32.5974 64.29 32.5974 63.8571C32.5974 63.8571 32.5974 46.974 32.5974 35.2857H42.2655L38.3694 36.7287V58.2294C38.3694 58.8066 38.658 59.0952 39.2352 59.2395H52.5108C56.9841 59.0952 60.5916 55.3434 60.5916 50.8701C60.5916 47.8398 59.0043 45.2424 56.6955 43.7994C58.1385 42.5007 59.2929 40.3362 59.2929 38.316C59.2929 32.6883 55.3968 29.658 49.7691 29.658H44.2857V23.886H126.392C127.114 23.886 127.258 24.3189 127.258 24.7518V63.7128V63.7128ZM120.765 31.9668C119.466 31.9668 119.033 31.9668 118.456 31.9668C117.879 31.9668 117.302 32.1111 117.013 32.9769L115.859 34.9971L111.385 42.9336L106.912 34.9971L105.758 32.9769C105.469 32.1111 104.747 31.9668 104.315 31.9668C103.737 31.9668 103.16 31.9668 102.006 31.9668C100.851 31.9668 101.284 32.9769 101.284 32.9769C101.284 32.9769 105.758 40.9134 109.365 47.4069C109.365 47.4069 109.365 55.0548 109.365 55.632C109.365 56.2092 109.654 56.4978 110.231 56.4978H112.251C112.684 56.4978 113.261 56.4978 113.261 55.632V47.4069C116.869 40.9134 121.342 32.9769 121.342 32.9769C121.342 32.9769 121.919 31.9668 120.765 31.9668Z" fill="white"/>
</svg>
