<svg width="160" height="88" viewBox="0 0 160 88" fill="none" xmlns="http://www.w3.org/2000/svg">
<path d="M51 44.0411C50.8357 55.1291 41.8835 64.0816 30.8779 63.9994C19.7081 63.8352 10.838 54.8005 11.0022 43.7947C11.1665 32.7067 20.1188 23.9184 31.0422 24.0006C42.1299 24.0827 51 33.0352 51 44.0411Z" fill="#5B74E2"/>
<path d="M30.7991 30V30C30.7991 30.0884 30.7991 30.1768 30.7991 30.2652C30.7991 33.5362 30.7991 36.8514 30.7991 40.1225C30.7991 40.1667 30.7991 40.2551 30.7991 40.2993C30.7991 40.3435 30.7542 40.3877 30.7093 40.3877C30.3951 40.5203 30.1257 40.6529 29.8115 40.7855C29.4074 40.9623 28.9585 41.1391 28.5545 41.3601C28.0606 41.5811 27.5668 41.8022 27.073 42.0232C26.6689 42.2 26.2649 42.3768 25.8608 42.5536C25.367 42.7746 24.8732 42.9956 24.3794 43.2166C23.9753 43.3935 23.5713 43.5703 23.1223 43.7913C22.8081 43.9239 22.4489 44.1007 22.1347 44.2333C22.0898 44.2333 22.0898 44.2775 22.0449 44.2333C22.0449 44.2333 22.0449 44.2333 22 44.2333C22.1347 44.0123 22.2694 43.8355 22.404 43.6145C23.1223 42.421 23.8855 41.2275 24.6038 40.034C25.367 38.7522 26.1751 37.4703 26.9383 36.1884C27.6566 34.9949 28.3749 33.8014 29.0932 32.6522C29.6319 31.7681 30.1706 30.9283 30.6644 30.0442C30.7542 30.0442 30.7542 30 30.7991 30C30.7542 30 30.7991 30 30.7991 30V30Z" fill="#F7F7F7"/>
<path d="M39.5101 44.2333V44.2333V44.2333V44.2333C38.8367 44.6754 38.1184 45.0732 37.445 45.471C35.2452 46.7529 33.0903 47.9906 30.8905 49.2725C30.8456 49.2725 30.8456 49.3167 30.8008 49.3167C30.7559 49.3167 30.7559 49.2725 30.7559 49.2725C30.7559 49.2282 30.7559 49.184 30.7559 49.1398C30.7559 46.2667 30.7559 43.3935 30.7559 40.5203C30.7559 40.4761 30.7559 40.4319 30.7559 40.3877C30.7559 40.3435 30.8008 40.3435 30.8456 40.3435C31.0252 40.4319 31.2048 40.5203 31.4293 40.6087C31.968 40.8739 32.5516 41.0949 33.0903 41.3601C33.5842 41.5812 34.0331 41.8022 34.5269 41.979C35.0207 42.2 35.4697 42.421 35.9635 42.642C36.3675 42.8188 36.8165 42.9956 37.2205 43.2167C37.6246 43.3935 38.0735 43.5703 38.4775 43.7913C38.7918 43.9239 39.1061 44.1007 39.4652 44.2333C39.4652 44.1891 39.4652 44.2333 39.5101 44.2333Z" fill="#8093E9"/>
<path d="M30.8011 57.9804V57.9804C30.8011 57.9804 30.7562 57.9804 30.8011 57.9804C30.7562 57.9804 30.7562 57.9804 30.7113 57.9362C29.8135 56.6985 28.9605 55.505 28.0626 54.2673C27.1647 53.0297 26.2669 51.792 25.369 50.5543C24.516 49.3608 23.6181 48.1674 22.7652 46.9297C22.5407 46.6203 22.3162 46.3108 22.0918 46.0014C22.0918 45.9572 22.0469 45.9572 22.0469 45.913C22.0918 45.913 22.0918 45.9572 22.1367 45.9572C23.3488 46.6645 24.6058 47.3717 25.8179 48.0789C27.2096 48.9188 28.6462 49.7145 30.0379 50.5543C30.2624 50.6869 30.5317 50.8195 30.7562 50.9521C30.8011 50.9521 30.8011 50.9963 30.8011 51.0405C30.8011 51.0847 30.8011 51.1289 30.8011 51.1731C30.8011 53.3833 30.8011 55.5492 30.8011 57.7594C30.8011 57.8036 30.8011 57.892 30.8011 57.9804Z" fill="#F7F7F7"/>
<path d="M22.0469 44.2334C22.0469 44.2334 22.0918 44.2334 22.0469 44.2334C22.0918 44.2334 22.0918 44.2334 22.0469 44.2334C22.0469 44.2776 22.0469 44.2776 22.0469 44.2334V44.2334V44.2334Z" fill="#808080"/>
<path d="M22.0889 44.2775C22.0889 44.2333 22.0889 44.2333 22.0889 44.2775C22.5378 44.0565 22.9867 43.8797 23.4357 43.6587C24.0193 43.3935 24.6029 43.1282 25.1865 42.863C25.6355 42.642 26.0844 42.4652 26.5333 42.2442C27.1618 41.9348 27.8352 41.6695 28.4637 41.3601C28.9127 41.1833 29.3616 40.9623 29.8106 40.7855C30.1248 40.6529 30.4391 40.5203 30.7533 40.3435C30.7982 40.3435 30.7982 40.2993 30.8431 40.2993C30.8431 40.2993 30.8431 40.2993 30.8431 40.3435C30.8431 40.3877 30.8431 40.3877 30.8431 40.4319C30.8431 43.3493 30.8431 46.2666 30.8431 49.184C30.8431 49.2282 30.8431 49.2724 30.8431 49.3166C30.7982 49.3608 30.7982 49.3166 30.7533 49.3166C30.6186 49.2282 30.484 49.184 30.3942 49.0956C27.6557 47.5043 24.9172 45.913 22.1787 44.3217C22.1338 44.2775 22.0889 44.2775 22.0889 44.2775Z" fill="#BAC5F0"/>
<path d="M39.4613 45.913V45.913C39.4613 45.9572 39.4613 45.9572 39.4164 46.0014C36.8126 49.626 34.2088 53.2065 31.605 56.8311C31.3356 57.2289 31.0662 57.5826 30.7969 57.9804C30.7969 57.9804 30.7969 57.9804 30.7969 57.9362C30.7969 57.892 30.7969 57.892 30.7969 57.8478C30.7969 55.5934 30.7969 53.3391 30.7969 51.0847C30.7969 51.0405 30.7969 50.9963 30.7969 50.9521C31.3805 50.5985 31.9641 50.2449 32.5477 49.9355C34.8373 48.6094 37.1269 47.2833 39.4164 45.9572C39.4164 45.913 39.4613 45.913 39.4613 45.913Z" fill="#B5C0EC"/>
<path d="M30.7969 40.3435V40.3435C30.7969 40.2993 30.7969 40.255 30.7969 40.255C30.7969 36.8956 30.7969 33.492 30.7969 30.1326C30.7969 30.0884 30.7969 30.0442 30.7969 30.0442C33.6701 34.7297 36.5432 39.4152 39.4164 44.1007C39.4613 44.1449 39.5062 44.1891 39.5062 44.2333C39.3266 44.1449 39.1471 44.0565 38.9226 43.9681C38.6981 43.8797 38.4737 43.7471 38.2492 43.6587C38.1145 43.6145 37.9798 43.5261 37.8003 43.4819C37.5758 43.3935 37.3064 43.2608 37.082 43.1724C36.9473 43.1282 36.8126 43.0398 36.6779 42.9956C36.3637 42.863 36.0494 42.7304 35.7352 42.5978C35.5556 42.5094 35.4209 42.4652 35.2413 42.3768C35.0169 42.2884 34.7924 42.1558 34.5679 42.0674C34.4333 42.0232 34.2986 41.9348 34.1639 41.8906C33.8496 41.7579 33.5354 41.6253 33.2211 41.4927C33.0416 41.4043 32.9069 41.3601 32.7273 41.2717C32.5028 41.1833 32.2784 41.0507 32.0539 40.9623C31.9192 40.8739 31.7396 40.8297 31.605 40.7413C31.3356 40.6087 31.0662 40.4761 30.7969 40.3435V40.3435Z" fill="#BCC8F1"/>
<path fill-rule="evenodd" clip-rule="evenodd" d="M86.7283 47.541V53.2688C86.7249 53.3862 86.6767 53.4979 86.5937 53.581C86.5106 53.6641 86.3989 53.7122 86.2815 53.7156C86.2223 53.7173 86.1635 53.7069 86.1085 53.6851C86.0535 53.6632 86.0036 53.6303 85.9618 53.5885C85.9199 53.5467 85.8871 53.4967 85.8652 53.4418C85.8433 53.3868 85.8329 53.3279 85.8346 53.2688V47.541C85.8346 45.6046 84.7378 43.6818 82.5848 43.6818C79.8224 43.6818 78.6308 46.0921 78.7933 48.5701C78.7933 48.6082 78.8019 48.7152 78.8094 48.8085L78.8094 48.8087C78.8152 48.8809 78.8204 48.945 78.8204 48.9628V53.2552C78.8202 53.3697 78.7791 53.4802 78.7047 53.5671C78.6302 53.654 78.5272 53.7115 78.4142 53.7292C78.351 53.7376 78.2867 53.7322 78.2258 53.7135C78.1649 53.6948 78.1087 53.6631 78.0611 53.6207C78.0136 53.5783 77.9757 53.5261 77.9502 53.4677C77.9247 53.4093 77.912 53.3461 77.9132 53.2823V34.4469C77.9142 34.3287 77.9616 34.2156 78.0452 34.1321C78.1288 34.0485 78.2418 34.0011 78.36 34C78.4774 34.0034 78.5891 34.0516 78.6722 34.1347C78.7553 34.2177 78.8035 34.3294 78.8069 34.4469V45.09C79.5787 43.7089 80.9599 42.7745 82.5712 42.7745C85.2253 42.7745 86.7283 45.09 86.7283 47.541ZM75.7781 43.0654C75.6951 42.9823 75.5834 42.9341 75.4659 42.9307H73.0692V39.4507C73.0703 39.387 73.0577 39.3238 73.0322 39.2654C73.0066 39.207 72.9688 39.1548 72.9212 39.1123C72.8736 39.0699 72.8175 39.0383 72.7565 39.0195C72.6956 39.0008 72.6314 38.9955 72.5682 39.0039C72.4551 39.0216 72.3521 39.079 72.2777 39.1659C72.2032 39.2528 72.1622 39.3634 72.1619 39.4778V42.9307H69.8464C69.7283 42.9318 69.6152 42.9792 69.5316 43.0628C69.4481 43.1464 69.4007 43.2594 69.3996 43.3776C69.3979 43.4367 69.4083 43.4956 69.4302 43.5506C69.452 43.6055 69.4849 43.6555 69.5267 43.6973C69.5686 43.7391 69.6185 43.772 69.6735 43.7939C69.7284 43.8157 69.7873 43.8261 69.8464 43.8244H72.1619V53.2896C72.1654 53.407 72.2135 53.5187 72.2966 53.6018C72.3797 53.6848 72.4914 53.733 72.6088 53.7364C72.727 53.7354 72.84 53.6879 72.9236 53.6044C73.0072 53.5208 73.0546 53.4078 73.0556 53.2896V43.8244H75.4659C75.5251 43.8261 75.5839 43.8157 75.6389 43.7939C75.6939 43.772 75.7438 43.7391 75.7857 43.6973C75.8275 43.6555 75.8603 43.6055 75.8822 43.5506C75.9041 43.4956 75.9145 43.4367 75.9128 43.3776C75.9094 43.2602 75.8612 43.1485 75.7781 43.0654ZM67.2535 48.9029C67.3448 48.8141 67.3973 48.6927 67.3995 48.5653C67.3859 45.6811 65.2194 43 62.1862 43C59.153 43 57 45.7082 57 48.5924C57 51.4766 59.1666 54.1848 62.1862 54.1848C63.9465 54.1848 65.7475 53.413 66.6547 51.8423C66.6992 51.7737 66.7227 51.6937 66.7224 51.6121C66.7241 51.5529 66.7137 51.4941 66.6918 51.4391C66.67 51.3841 66.6371 51.3342 66.5953 51.2923C66.5534 51.2505 66.5035 51.2177 66.4485 51.1958C66.3936 51.1739 66.3347 51.1635 66.2756 51.1652C66.1963 51.1685 66.119 51.1912 66.0505 51.2313C65.982 51.2715 65.9245 51.3278 65.8829 51.3954C64.9892 52.6818 63.7976 53.2911 62.1862 53.2911C59.8301 53.2911 58.1645 51.26 57.9343 49.0393H66.912C67.0394 49.0407 67.1622 48.9917 67.2535 48.9029ZM62.1862 43.8937C64.5423 43.8937 66.2485 45.9249 66.4381 48.1456H57.9343C58.1645 45.9249 59.8301 43.8937 62.1862 43.8937ZM98.982 48.9029C99.0734 48.8141 99.1258 48.6927 99.128 48.5653C99.1144 45.6811 96.9208 43 93.9147 43C90.8815 43 88.7285 45.7082 88.7285 48.5924C88.7285 51.4766 90.8951 54.1848 93.9147 54.1848C95.675 54.1848 97.476 53.413 98.3832 51.8422C98.4277 51.7737 98.4512 51.6937 98.4509 51.6121C98.4526 51.5529 98.4422 51.4941 98.4203 51.4391C98.3985 51.3841 98.3656 51.3342 98.3238 51.2923C98.282 51.2505 98.232 51.2176 98.177 51.1958C98.1221 51.1739 98.0632 51.1635 98.0041 51.1652C97.9248 51.1685 97.8475 51.1912 97.779 51.2313C97.7106 51.2715 97.653 51.3278 97.6114 51.3954C96.7177 52.6818 95.5261 53.2911 93.9147 53.2911C91.5586 53.2911 89.893 51.26 89.6628 49.0393H98.6405C98.7679 49.0407 98.8907 48.9917 98.982 48.9029ZM93.9012 43.8937C96.2573 43.8937 97.9635 45.9248 98.153 48.1456H89.6493C89.8795 45.9248 91.545 43.8937 93.9012 43.8937ZM106.287 43.4198C106.296 43.54 106.256 43.6587 106.178 43.7501C106.099 43.8414 105.987 43.8979 105.867 43.9072C103.227 44.2999 102.035 46.4529 102.035 48.958V53.2505C102.035 53.3649 101.994 53.4755 101.92 53.5624C101.845 53.6493 101.742 53.7067 101.629 53.7244C101.566 53.7328 101.502 53.7275 101.441 53.7088C101.38 53.69 101.324 53.6584 101.276 53.616C101.228 53.5735 101.191 53.5213 101.165 53.4629C101.139 53.4045 101.127 53.3413 101.128 53.2776V43.4875C101.128 43.3731 101.169 43.2625 101.244 43.1756C101.318 43.0887 101.421 43.0313 101.534 43.0135C101.597 43.0051 101.662 43.0105 101.723 43.0292C101.784 43.0479 101.84 43.0796 101.887 43.122C101.935 43.1645 101.973 43.2166 101.998 43.275C102.024 43.3334 102.036 43.3967 102.035 43.4604V45.4509C102.78 44.1916 104.256 43 105.8 43C106.03 43 106.287 43.1625 106.287 43.4198ZM118.542 48.9029C118.633 48.8141 118.685 48.6927 118.688 48.5653C118.674 45.6811 116.507 43 113.474 43C110.441 43 108.288 45.7082 108.288 48.5924C108.288 51.4766 110.455 54.1848 113.474 54.1848C115.235 54.1848 117.036 53.413 117.943 51.8422C117.987 51.7737 118.011 51.6937 118.011 51.6121C118.012 51.5529 118.002 51.4941 117.98 51.4391C117.958 51.3841 117.925 51.3342 117.883 51.2923C117.842 51.2505 117.792 51.2176 117.737 51.1958C117.682 51.1739 117.623 51.1635 117.564 51.1652C117.484 51.1685 117.407 51.1912 117.339 51.2313C117.27 51.2715 117.213 51.3278 117.171 51.3954C116.277 52.6818 115.086 53.2911 113.474 53.2911C111.118 53.2911 109.453 51.26 109.222 49.0393H118.2C118.327 49.0407 118.45 48.9917 118.542 48.9029ZM113.474 43.8937C115.83 43.8937 117.537 45.9248 117.726 48.1456H109.222C109.453 45.9248 111.118 43.8937 113.474 43.8937ZM129.462 43.4744V53.3052C129.459 53.4226 129.41 53.5343 129.327 53.6174C129.244 53.7004 129.133 53.7486 129.015 53.752C128.956 53.7537 128.897 53.7433 128.842 53.7214C128.787 53.6996 128.737 53.6667 128.695 53.6249C128.654 53.5831 128.621 53.5331 128.599 53.4781C128.577 53.4232 128.567 53.3643 128.568 53.3052V51.4365C127.824 52.9125 126.51 53.9822 124.831 53.9822C122.163 53.9822 120.688 51.6667 120.688 49.2158V43.4609C120.689 43.3427 120.736 43.2297 120.82 43.1461C120.903 43.0625 121.016 43.0151 121.134 43.014C121.252 43.0174 121.363 43.0656 121.447 43.1487C121.53 43.2318 121.578 43.3435 121.581 43.4609V49.2158C121.581 51.1522 122.678 53.075 124.831 53.075C127.851 53.075 128.568 50.2449 128.568 47.117V43.4474C128.569 43.3749 128.588 43.3038 128.622 43.2399C128.656 43.176 128.705 43.1212 128.765 43.0801C128.824 43.039 128.893 43.0127 128.965 43.0036C129.037 42.9945 129.11 43.0027 129.178 43.0276C129.263 43.0671 129.335 43.1302 129.385 43.2094C129.436 43.2886 129.462 43.3806 129.462 43.4744ZM148.158 53.4807V47.7258C148.158 45.2884 146.655 43 144.014 43C142.159 43 140.71 44.1781 139.966 45.8571C139.383 44.1645 137.962 43 136.134 43C134.522 43 133.141 43.9072 132.369 45.2884V43.65C132.37 43.5862 132.358 43.523 132.332 43.4646C132.307 43.4062 132.269 43.354 132.221 43.3116C132.174 43.2692 132.118 43.2375 132.057 43.2188C131.996 43.2001 131.931 43.1947 131.868 43.2031C131.755 43.2208 131.652 43.2783 131.578 43.3652C131.503 43.452 131.462 43.5626 131.462 43.677V53.4942C131.461 53.558 131.473 53.6212 131.499 53.6796C131.525 53.738 131.562 53.7902 131.61 53.8326C131.658 53.875 131.714 53.9067 131.775 53.9254C131.836 53.9441 131.9 53.9495 131.963 53.9411C132.076 53.9234 132.179 53.8659 132.254 53.779C132.328 53.6922 132.369 53.5816 132.369 53.4672V49.1476C132.388 49.12 132.381 49.0547 132.375 48.9945C132.372 48.9662 132.369 48.939 132.369 48.9174C132.274 46.0467 133.398 43.8937 136.134 43.8937C138.287 43.8937 139.383 45.7894 139.383 47.7258V53.4807C139.382 53.5398 139.392 53.5987 139.414 53.6537C139.436 53.7087 139.469 53.7586 139.511 53.8004C139.552 53.8423 139.602 53.8751 139.657 53.897C139.712 53.9188 139.771 53.9292 139.83 53.9276C139.948 53.9242 140.059 53.876 140.143 53.7929C140.226 53.7098 140.274 53.5981 140.277 53.4807V49.0393C140.277 46.7915 141.306 43.8937 144.014 43.8937C146.167 43.8937 147.264 45.7894 147.264 47.7258V53.4807C147.263 53.5398 147.273 53.5987 147.295 53.6537C147.317 53.7087 147.35 53.7586 147.391 53.8004C147.433 53.8423 147.483 53.8751 147.538 53.897C147.593 53.9188 147.652 53.9292 147.711 53.9276C147.829 53.9242 147.94 53.876 148.023 53.7929C148.106 53.7098 148.155 53.5981 148.158 53.4807Z" fill="white"/>
</svg>
