<svg width="160" height="88" viewBox="0 0 160 88" fill="none" xmlns="http://www.w3.org/2000/svg">
<path fill-rule="evenodd" clip-rule="evenodd" d="M71.844 38.8772C71.844 32.2181 75.0877 26.2864 80.1389 22.4637C76.4451 19.6684 71.7833 18 66.7169 18C54.7227 18 45 27.3469 45 38.8772C45 50.4075 54.7227 59.7544 66.7169 59.7544C71.7833 59.7544 76.4451 58.086 80.1389 55.2907C75.0877 51.468 71.844 45.5363 71.844 38.8772Z" fill="#EB001B"/>
<path fill-rule="evenodd" clip-rule="evenodd" d="M115.278 38.8772C115.278 50.4075 105.555 59.7544 93.5615 59.7544C88.4953 59.7544 83.8337 58.086 80.1387 55.2907C85.1911 51.468 88.4346 45.5363 88.4346 38.8772C88.4346 32.2181 85.1911 26.2864 80.1387 22.4637C83.8337 19.6684 88.4953 18 93.5615 18C105.555 18 115.278 27.3469 115.278 38.8772Z" fill="#F79E1B"/>
<path fill-rule="evenodd" clip-rule="evenodd" d="M80.1385 22.4739C75.0215 26.2954 71.7363 32.2214 71.7363 38.8734C71.7363 45.5255 75.0215 51.4515 80.1385 55.2729C85.2568 51.4515 88.542 45.5255 88.542 38.8734C88.542 32.2214 85.2568 26.2954 80.1385 22.4739Z" fill="#FF5F00"/>
<path fill-rule="evenodd" clip-rule="evenodd" d="M113.967 70.1162C114.035 70.1162 114.087 70.131 114.124 70.161C114.161 70.1911 114.179 70.2312 114.179 70.2825C114.179 70.3249 114.165 70.3609 114.135 70.3892C114.106 70.4163 114.064 70.434 114.01 70.4405L114.183 70.6368H114.048L113.887 70.441H113.835V70.6368H113.722V70.1162H113.967ZM113.835 70.2141V70.3526H113.966C113.995 70.3526 114.019 70.3467 114.036 70.3355C114.054 70.3237 114.063 70.3061 114.063 70.2825C114.063 70.2595 114.054 70.2424 114.036 70.2306C114.019 70.22 113.995 70.2141 113.966 70.2141H113.835ZM113.933 70.8148C113.995 70.8148 114.051 70.8036 114.105 70.7812C114.158 70.7582 114.205 70.727 114.245 70.6869C114.285 70.648 114.317 70.602 114.339 70.5489C114.362 70.4953 114.374 70.4393 114.374 70.3786C114.374 70.3178 114.362 70.2618 114.339 70.2082C114.317 70.1551 114.285 70.1092 114.245 70.0697C114.205 70.0302 114.158 69.9989 114.105 69.9765C114.051 69.9541 113.995 69.9435 113.933 69.9435C113.871 69.9435 113.812 69.9541 113.757 69.9765C113.702 69.9989 113.655 70.0302 113.615 70.0697C113.575 70.1092 113.543 70.1551 113.521 70.2082C113.498 70.2618 113.486 70.3178 113.486 70.3786C113.486 70.4393 113.498 70.4953 113.521 70.5489C113.543 70.602 113.575 70.648 113.615 70.6869C113.655 70.727 113.702 70.7582 113.757 70.7812C113.812 70.8036 113.871 70.8148 113.933 70.8148ZM113.933 69.8185C114.013 69.8185 114.089 69.8327 114.159 69.8622C114.229 69.8916 114.291 69.9311 114.344 69.9824C114.397 70.0331 114.438 70.0926 114.469 70.161C114.499 70.2288 114.514 70.3013 114.514 70.3786C114.514 70.4552 114.499 70.5277 114.469 70.5955C114.438 70.6627 114.397 70.7222 114.344 70.7729C114.291 70.8242 114.229 70.8637 114.159 70.8938C114.089 70.9238 114.013 70.9386 113.933 70.9386C113.851 70.9386 113.774 70.9238 113.702 70.8938C113.631 70.8637 113.569 70.8242 113.518 70.7729C113.465 70.7222 113.423 70.6627 113.393 70.5955C113.363 70.5277 113.347 70.4552 113.347 70.3786C113.347 70.3013 113.363 70.2288 113.393 70.161C113.423 70.0926 113.465 70.0331 113.518 69.9824C113.569 69.9311 113.631 69.8916 113.702 69.8622C113.774 69.8327 113.851 69.8185 113.933 69.8185ZM60.3243 67.8172C60.3243 66.8274 60.985 66.0139 62.0671 66.0139C63.1011 66.0139 63.7984 66.792 63.7984 67.8172C63.7984 68.8435 63.1011 69.621 62.0671 69.621C60.985 69.621 60.3243 68.8075 60.3243 67.8172ZM64.9768 67.8172V64.9999H63.7264V65.6838C63.3296 65.1774 62.7284 64.8591 61.9109 64.8591C60.3003 64.8591 59.0379 66.0964 59.0379 67.8172C59.0379 69.5385 60.3003 70.7765 61.9109 70.7765C62.7284 70.7765 63.3296 70.4582 63.7264 69.9512V70.6356H64.9768V67.8172ZM107.196 67.8172C107.196 66.8274 107.858 66.0139 108.939 66.0139C109.973 66.0139 110.67 66.792 110.67 67.8172C110.67 68.8435 109.973 69.621 108.939 69.621C107.858 69.621 107.196 68.8075 107.196 67.8172ZM111.849 67.8172V62.7368H110.598V65.6838C110.202 65.1774 109.6 64.859 108.784 64.859C107.172 64.859 105.91 66.0964 105.91 67.8172C105.91 69.5385 107.172 70.7765 108.784 70.7765C109.6 70.7765 110.202 70.4581 110.598 69.9512V70.6356H111.849V67.8172ZM80.4843 65.9549C81.2899 65.9549 81.8069 66.4501 81.9386 67.322H78.9574C79.0896 66.5091 79.5946 65.9549 80.4843 65.9549ZM80.5085 64.8591C78.8253 64.8591 77.6476 66.061 77.6476 67.8172C77.6476 69.6093 78.8734 70.7765 80.5927 70.7765C81.4583 70.7765 82.2519 70.5643 82.9486 69.9866L82.336 69.0787C81.8551 69.4566 81.2419 69.6682 80.6648 69.6682C79.8593 69.6682 79.1258 69.3027 78.9455 68.2888H83.2137C83.2252 68.1355 83.2378 67.9828 83.2378 67.8172C83.2252 66.061 82.119 64.8591 80.5085 64.8591ZM95.5952 67.8172C95.5952 66.8274 96.2571 66.0139 97.3392 66.0139C98.3726 66.0139 99.07 66.792 99.07 67.8172C99.07 68.8435 98.3726 69.621 97.3392 69.621C96.2571 69.621 95.5952 68.8075 95.5952 67.8172ZM100.248 67.8172V64.9999H98.9971V65.6838C98.601 65.1774 97.9998 64.8591 97.1822 64.8591C95.5711 64.8591 94.3092 66.0964 94.3092 67.8172C94.3092 69.5385 95.5711 70.7765 97.1822 70.7765C97.9998 70.7765 98.601 70.4582 98.9971 69.9512V70.6356H100.248V67.8172ZM88.5388 67.8172C88.5388 69.5273 89.7531 70.7765 91.6047 70.7765C92.4698 70.7765 93.0469 70.5884 93.6721 70.1045L93.071 69.1147C92.6027 69.4442 92.1091 69.6211 91.5687 69.6211C90.5707 69.6093 89.8373 68.9019 89.8373 67.8172C89.8373 66.7331 90.5707 66.0257 91.5687 66.0139C92.1091 66.0139 92.6027 66.1907 93.071 66.5209L93.6721 65.5305C93.0469 65.0471 92.4698 64.8591 91.6047 64.8591C89.7531 64.8591 88.5388 66.1082 88.5388 67.8172ZM104.648 64.8591C103.927 64.8591 103.457 65.1886 103.133 65.6838V64.9999H101.895V70.6356H103.145V67.4753C103.145 66.5444 103.553 66.0257 104.372 66.0257C104.624 66.0257 104.888 66.061 105.153 66.1672L105.537 65.0123C105.261 64.9062 104.901 64.8591 104.648 64.8591ZM71.1555 65.448C70.5543 65.0595 69.7253 64.8591 68.8115 64.8591C67.3567 64.8591 66.4195 65.5423 66.4195 66.6623C66.4195 67.582 67.1163 68.1479 68.4028 68.3247L68.9919 68.4067C69.6766 68.501 70.0012 68.6779 70.0012 68.9962C70.0012 69.433 69.5444 69.68 68.6913 69.68C67.8256 69.68 67.2004 69.4094 66.7796 69.0905L66.1905 70.0461C66.8758 70.5401 67.7415 70.7765 68.6793 70.7765C70.3379 70.7765 71.2998 70.0101 71.2998 68.9378C71.2998 67.9475 70.5423 67.4287 69.2925 67.2513L68.7033 67.1693C68.1623 67.0986 67.7295 66.9925 67.7295 66.6152C67.7295 66.2025 68.1382 65.9549 68.8236 65.9549C69.557 65.9549 70.2658 66.2261 70.615 66.4383L71.1555 65.448ZM87.2763 64.8591C86.5555 64.8591 86.0866 65.1886 85.762 65.6838V64.9999H84.5236V70.6356H85.7734V67.4753C85.7734 66.5444 86.1828 66.0257 86.9998 66.0257C87.2523 66.0257 87.5174 66.061 87.7813 66.1672L88.166 65.0123C87.8895 64.9062 87.5288 64.8591 87.2763 64.8591ZM76.6136 64.9999H74.5702V63.291H73.3078V64.9999H72.1415V66.12H73.3078V68.6902C73.3078 69.9989 73.8242 70.7765 75.303 70.7765C75.8441 70.7765 76.4693 70.6114 76.8661 70.3408L76.5054 69.2909C76.1326 69.5037 75.7239 69.6093 75.3992 69.6093C74.774 69.6093 74.5702 69.2326 74.5702 68.6666V66.12H76.6136V64.9999ZM57.9318 70.6356V67.0986C57.9318 65.7663 57.0661 64.8702 55.672 64.859C54.9386 64.8467 54.1811 65.0707 53.6521 65.8606C53.2559 65.2357 52.6301 64.859 51.753 64.859C51.1398 64.859 50.5387 65.0359 50.0698 65.6961V64.9999H48.8193V70.6356H50.0818V67.5112C50.0818 66.5326 50.6348 66.0139 51.4885 66.0139C52.3175 66.0139 52.7383 66.5444 52.7383 67.4988V70.6356H54.0008V67.5112C54.0008 66.5326 54.5779 66.0139 55.4075 66.0139C56.2611 66.0139 56.6693 66.5444 56.6693 67.4988V70.6356H57.9318Z" fill="white"/>
</svg>
