<svg width="160" height="88" viewBox="0 0 160 88" fill="none" xmlns="http://www.w3.org/2000/svg">
<path d="M26.5706 42.8192V56.5656C26.5706 57.2573 26.3977 57.5166 25.7061 57.4302C24.3228 57.3437 22.853 57.4302 21.4697 57.4302C20.0865 57.4302 20 57.4302 20 55.9604V35.1247C20 33.0498 20.7781 31.8394 22.5072 31.2342C24.2363 30.629 26.6571 31.2342 27.6081 32.6175C28.4726 34.0008 29.2507 35.4705 29.9424 36.9402C31.1527 39.361 32.3631 41.8682 33.5735 44.289C33.6599 44.3754 33.6599 44.4619 33.9193 44.4619V32.0988C33.9193 31.58 34.0922 31.3207 34.6109 31.4071H39.7118C40.2305 31.4071 40.4899 31.58 40.4899 32.1852V53.8855C40.4899 55.5281 39.5389 56.9979 38.1556 57.5166C36.6859 58.0354 35.1297 57.6895 34.0058 56.1333C32.8818 54.4907 31.9308 52.7616 31.0663 51.0325C29.5965 48.3524 28.2997 45.6722 26.83 42.9921C26.83 42.9921 26.7435 42.9921 26.5706 42.8192ZM50 47.2284C51.6427 46.191 53.1124 45.24 54.5821 44.2025C53.4582 43.3379 51.4697 43.5109 50.5187 44.5483C48.7896 46.2774 48.6167 49.3034 50.2594 51.2054C51.4697 52.6751 53.4582 52.9345 55.1873 51.8106C56.3112 51.1189 57.2622 50.1679 57.8674 48.9575C58.0403 48.5253 58.2997 48.4388 58.732 48.6982C59.8559 49.3034 60.9798 49.8221 62.1037 50.4273C62.2767 50.5137 62.536 51.0325 62.4496 51.2054C60.3746 55.7875 55.7061 58.8134 50.5187 57.5166C44.6398 56.0469 41.268 49.044 44.8991 43.2515C48.5303 37.5454 56.4841 37.3725 60.3746 42.9057C61.6715 44.6348 61.585 44.6348 59.8559 45.8451C57.6945 47.3149 55.5331 48.8711 53.3718 50.3408C52.5072 50.946 52.5072 50.946 51.9885 50.0815C51.2104 49.2169 50.6916 48.2659 50 47.2284ZM82.2478 48.4388C82.2478 53.5397 78.0115 57.776 72.9971 57.776C67.8963 57.776 63.6599 53.5397 63.6599 48.3524C63.6599 43.2515 67.8963 39.0152 72.9971 39.0152C78.098 38.9287 82.2478 43.2515 82.2478 48.4388ZM76.3689 48.4388C76.3689 46.3639 74.9856 44.7212 73.0836 44.7212C71.0951 44.6348 69.5389 46.191 69.5389 48.2659C69.5389 50.2544 71.0086 51.9835 72.8242 51.9835C74.8127 52.0699 76.2824 50.5137 76.3689 48.4388ZM98.7608 45.3264V40.1391C98.7608 39.6204 98.8473 39.361 99.5389 39.361C100.922 39.4475 102.392 39.4475 103.775 39.361C104.467 39.361 104.64 39.6204 104.64 40.2256V49.2169C104.64 49.7356 104.726 50.2544 104.899 50.7731C105.158 51.5512 105.677 51.9835 106.542 51.897C107.406 51.897 107.925 51.5512 108.184 50.7731C108.357 50.2544 108.444 49.7356 108.444 49.2169V40.2256C108.444 39.5339 108.617 39.2745 109.308 39.361C110.692 39.4475 112.075 39.361 113.458 39.361C113.977 39.361 114.236 39.4475 114.236 40.1391V49.9085C114.15 52.7616 113.285 55.3552 110.605 56.825C107.925 58.2947 105.159 58.2947 102.392 56.9114C99.8847 55.5281 98.8473 53.1939 98.6743 50.4273C98.6743 48.6982 98.7608 46.9691 98.7608 45.3264ZM135.418 39.1881C136.715 39.1881 137.925 39.2745 139.135 39.1881C139.827 39.1881 139.914 39.361 139.914 39.9662V43.8567C139.914 44.5483 139.741 44.7212 139.049 44.7212C137.839 44.6348 136.628 44.7212 135.331 44.7212V56.3927C135.331 57.1708 135.072 57.3437 134.38 57.3437C132.997 57.2573 131.614 57.2573 130.231 57.3437C129.452 57.3437 129.28 57.1708 129.28 56.3927V38.2371C129.193 34.0008 132.219 31.7529 135.85 31.4936C136.974 31.4071 138.098 31.4936 139.222 31.4936C139.741 31.4936 140 31.6665 140 32.1852V36.3351C140 36.8538 139.827 37.0267 139.308 37.0267H137.493C135.85 37.1132 135.418 37.5454 135.418 39.1881ZM87.781 57.3437H84.4957C83.9769 57.3437 83.7176 57.1708 83.7176 56.6521V52.848C83.7176 52.3293 83.9769 52.1564 84.4957 52.1564H89.2507C89.5965 52.1564 90.2882 52.0699 90.3746 51.6377C90.4611 51.2054 89.8559 50.946 89.5965 50.6866C88.8184 50.2544 87.8674 49.995 87.0893 49.5627C84.6686 48.3524 83.6311 46.191 84.0634 43.4244C84.4092 41.4359 86.3112 39.6204 88.732 39.4475C90.8069 39.2745 92.9683 39.361 95.0432 39.361C95.2161 39.361 95.562 39.7068 95.562 39.8797C95.6484 41.1766 95.6484 42.5598 95.562 43.8567C95.562 44.0296 95.2161 44.289 94.9568 44.289H90.8069C90.3746 44.289 89.8559 44.4619 89.7694 44.8941C89.683 45.24 90.2017 45.5858 90.5475 45.7587C91.7579 46.4503 93.1412 46.9691 94.3516 47.7472C96.2536 48.9575 96.9452 50.7731 96.513 52.9345C96.0807 55.1823 94.7839 56.7385 92.4496 57.0843C90.9798 57.3437 87.781 57.4302 87.781 57.3437ZM122.19 41.6088C123.228 39.7933 124.957 39.4475 126.772 39.4475C127.205 39.4475 127.378 39.7068 127.378 40.0526V44.289C127.378 44.8077 127.205 44.9806 126.686 44.9806C126.081 44.9806 125.562 45.0671 124.957 45.24C123.66 45.4993 123.055 46.191 123.055 47.5743C122.968 50.4273 123.055 53.2803 122.968 56.1333C122.968 57.4302 122.968 57.4302 121.671 57.4302H117.695C117.089 57.4302 116.916 57.2573 116.916 56.6521V40.1391C116.916 39.6204 117.089 39.361 117.608 39.361C118.905 39.361 120.202 39.4475 121.412 39.361C122.017 39.361 122.277 39.5339 122.19 40.1391V41.6088Z" fill="#FF4FA8"/>
</svg>
