<svg width="160" height="88" viewBox="0 0 160 88" fill="none" xmlns="http://www.w3.org/2000/svg">
<path fill-rule="evenodd" clip-rule="evenodd" d="M86 30C86 24.4772 90.4772 20 96 20H123C128.523 20 133 24.4772 133 30V58C133 63.5229 128.523 68 123 68H96C90.4771 68 86 63.5228 86 58V30ZM99.2734 35.5468C100.529 35.5372 101.518 34.5195 101.518 33.2639C101.518 32.0178 100.491 31 99.2449 31C98.0179 31.0095 96.9906 32.0558 97.0001 33.2924C97.0001 34.529 98.0369 35.5563 99.2734 35.5468ZM109.69 48.2739H106.655V31.352C106.826 31.3325 106.997 31.3111 107.17 31.2897C107.672 31.2273 108.181 31.1639 108.691 31.1427C111.678 30.9905 114.569 31.371 117.299 32.6551C119.63 33.749 121.408 35.4231 122.521 37.7631C122.55 37.8201 122.576 37.8772 122.602 37.9343L122.602 37.9344C122.628 37.9915 122.655 38.0485 122.683 38.1055C122.689 38.1226 122.688 38.1397 122.686 38.1671C122.685 38.1854 122.683 38.2082 122.683 38.2387C122.173 38.4527 121.659 38.6699 121.142 38.8885C120.763 39.0487 120.383 39.2096 120.001 39.3706C117.851 35.0997 113.97 34.2721 109.69 34.0914V48.2739ZM97.6758 56.3686V39.5894H100.653V53.3152L100.725 53.3244C100.845 53.3399 100.949 53.3533 101.053 53.3533C101.759 53.3533 102.464 53.355 103.169 53.3568L103.171 53.3568H103.171H103.171C105.287 53.3622 107.4 53.3675 109.518 53.3247C111.858 53.2772 114.16 52.9062 116.272 51.8123C118.45 50.6709 119.896 48.9397 120.391 46.4856C120.394 46.4619 120.397 46.4367 120.399 46.4071V46.407L120.399 46.4069C120.403 46.3651 120.408 46.3146 120.419 46.2478H117.927L118.137 45.9838C119.534 44.2254 120.868 42.5472 122.245 40.8259C123.691 42.6332 125.099 44.4024 126.573 46.2573H123.682C123.534 46.6684 123.403 47.0746 123.274 47.4733C123.003 48.3106 122.743 49.1149 122.369 49.8624C120.866 52.8872 118.269 54.5898 115.102 55.5315C113.18 56.1022 111.192 56.3496 109.195 56.3686C106.592 56.3952 103.984 56.3892 101.375 56.3832H101.374C100.256 56.3807 99.1371 56.3781 98.0182 56.3781C97.939 56.386 97.8597 56.3807 97.7474 56.3732L97.6758 56.3686ZM34.0616 55.7655V46.3296H35.2982C35.4723 46.3296 35.6464 46.3301 35.8204 46.3305C37.3869 46.3348 38.9518 46.3391 40.5013 45.9967C42.3752 45.5781 44.0398 44.8077 45.1336 43.124C46.0753 41.6877 46.1895 40.0802 46.0087 38.4536C45.7805 36.3515 44.6961 34.801 42.7651 33.8688C41.481 33.2505 40.1113 32.9937 38.713 32.9652C36.623 32.9295 34.5277 32.9259 32.4351 32.9224C31.7371 32.9212 31.0395 32.92 30.3424 32.9176C30.2733 32.9176 30.2042 32.9301 30.1268 32.944C30.0871 32.9512 30.0452 32.9587 30 32.9652V55.7655H34.0616ZM35.0308 42.8819C34.7187 42.8793 34.4053 42.8767 34.0902 42.8767V36.38C34.6767 36.4011 35.2623 36.3879 35.8457 36.3747H35.8458H35.8458C37.1074 36.3463 38.3589 36.3181 39.5881 36.6368C41.462 37.1124 42.3086 38.5583 41.852 40.4321C41.5191 41.8019 40.4632 42.3726 39.2172 42.6484C38.5513 42.8006 37.8664 42.8482 37.1911 42.8672C36.4732 42.8938 35.7552 42.8879 35.0308 42.8819ZM62.8893 40.2792H62.8885H62.8876C62.6097 40.2795 62.3293 40.2799 62.0459 40.2799C62.0951 40.3963 62.1338 40.4937 62.1689 40.582L62.1689 40.5821C62.2085 40.6815 62.2434 40.7695 62.2837 40.8602L68.5046 55.385C68.5807 55.5467 68.6853 55.775 68.6282 55.9082C68.1907 57.0021 67.7341 58.1055 67.2204 59.1708C66.9541 59.7416 66.4214 60.0745 65.7746 60.1125C65.3051 60.139 64.8401 60.1332 64.3574 60.1273C64.1458 60.1247 63.9308 60.122 63.7105 60.122C63.6154 61.1113 63.5107 62.2052 63.4061 63.3371C64.7568 63.5939 66.041 63.6415 67.3251 63.3371C68.6282 63.0327 69.627 62.2908 70.3023 61.1493C70.6638 60.5406 70.9872 59.8937 71.244 59.2374C72.8548 55.1216 74.4572 51.0058 76.0596 46.89C76.8606 44.8325 77.6616 42.775 78.4637 40.7175C78.4971 40.6305 78.5212 40.5387 78.5491 40.4323L78.5491 40.4323L78.5491 40.4321L78.5496 40.4304C78.5612 40.3862 78.5734 40.3394 78.5873 40.2894C78.2361 40.2894 77.8896 40.291 77.5468 40.2926H77.5464H77.546H77.5458H77.5457C76.7004 40.2965 75.877 40.3002 75.0584 40.2799C74.6684 40.2704 74.5067 40.3941 74.383 40.7555C73.5079 43.3713 72.6138 45.9967 71.7196 48.6125L71.7183 48.6164L71.7182 48.6167L71.7181 48.617C71.3952 49.5667 71.0722 50.5166 70.7018 51.5897C70.5187 51.1173 70.3501 50.6766 70.1876 50.2516L70.187 50.2502C70.0291 49.8371 69.8767 49.4388 69.7221 49.0405C69.4705 48.3858 69.2193 47.7316 68.9684 47.0778L68.964 47.0663L68.9638 47.0659L68.9636 47.0655C68.1442 44.9308 67.3264 42.8004 66.4975 40.6699C66.4309 40.5177 66.2502 40.299 66.117 40.299C65.054 40.2762 63.991 40.2776 62.8893 40.2792ZM57.157 46.0632C57.3567 44.7696 56.7955 43.7613 55.5589 43.2572C53.9894 42.6104 52.4485 42.8101 50.9836 43.5806C50.6296 43.767 50.2998 43.9939 49.9573 44.2296C49.7754 44.3548 49.5898 44.4825 49.3951 44.6079C49.0495 44.2055 48.7011 43.7947 48.3468 43.3771L48.3467 43.377C48.0478 43.0246 47.7447 42.6673 47.4356 42.306C48.1491 41.6021 48.9576 41.0885 49.8422 40.6985C51.8968 39.8138 54.0275 39.5951 56.2153 40.0326C58.9738 40.5843 60.743 42.6294 60.8571 45.5116C60.922 47.1394 60.9205 48.7716 60.919 50.4022V50.4024C60.9184 51.1634 60.9177 51.924 60.9237 52.6836C60.93 53.3533 60.928 54.0271 60.9259 54.7107V54.7111C60.9248 55.0567 60.9237 55.4047 60.9237 55.756H57.2901V53.9963C57.0849 54.1556 56.8866 54.3276 56.6885 54.4995L56.6884 54.4997L56.6884 54.4997C56.2714 54.8616 55.8554 55.2225 55.3782 55.4611C53.276 56.536 51.1073 56.4123 49.0242 55.385C47.3786 54.567 46.5605 53.1782 46.5605 51.3139C46.5605 49.4686 47.4927 48.2415 49.0622 47.433C50.7173 46.5769 52.5151 46.3106 54.3319 46.1869C55.0412 46.143 55.7618 46.116 56.4936 46.0886H56.4936C56.7137 46.0803 56.9348 46.072 57.157 46.0632ZM57.1474 48.603C56.702 48.6502 56.2575 48.691 55.8147 48.7316C54.8298 48.822 53.8536 48.9116 52.8956 49.0691C52.2963 49.1642 51.697 49.4876 51.1834 49.8395C50.0705 50.6195 50.2227 52.2366 51.4497 52.8453C51.8112 53.0261 52.2297 53.1402 52.6292 53.1782C55.8538 53.4921 57.4423 51.5136 57.1474 48.603Z" fill="white"/>
</svg>
