<svg width="160" height="88" viewBox="0 0 160 88" fill="none" xmlns="http://www.w3.org/2000/svg">
<circle cx="40" cy="44" r="20" fill="#00A478"/>
<path d="M38 43V38H31V33H50V38H43V43H38Z" fill="white"/>
<path d="M43 44.9489V41.1362C42.1667 41.0681 41.2738 41 40.381 41C39.5476 41 38.7738 41 38 41.0681V44.8809C38.7143 44.8809 39.5476 44.9489 40.381 44.9489C41.2738 45.017 42.1667 45.017 43 44.9489Z" fill="white"/>
<path d="M40.381 46.1333C39.5476 46.1333 38.7738 46.1333 38 46.0667V56H43V46C42.1667 46.0667 41.2738 46.1333 40.381 46.1333Z" fill="white"/>
<path fill-rule="evenodd" clip-rule="evenodd" d="M28 44C28 42.3469 33.3472 41 40 41C46.6528 41 52 42.3469 52 44C52 45.6531 46.6528 47 40 47C33.3472 47 28 45.6531 28 44ZM51.0055 44C50.5702 43.3878 46.964 41.4898 40.0003 41.4898C33.0366 41.4898 29.4304 43.3265 28.9951 44C29.4304 44.6122 33.0366 45.5306 40.0003 45.5306C47.0262 45.5306 50.5702 44.6122 51.0055 44Z" fill="white"/>
<path d="M73.3993 35.8589V39.3922H76.8333V42.0434H73.3756V47.419C73.3756 48.6062 74.0307 49.1857 74.9909 49.1857C75.471 49.1857 76.0268 49.0343 76.4809 48.8073L77.3394 51.4324C76.4572 51.7848 75.7241 51.9361 74.7899 51.9622C72.0891 52.0639 70.3224 50.5242 70.3224 47.419V42.0434H68V39.3922H70.3224V36.1876L73.3993 35.8589ZM132.602 39.2266L132.829 40.6646C133.79 39.125 135.076 38.8979 136.339 38.8979C137.626 38.8979 138.862 39.4017 139.544 40.0828L138.155 42.7576C137.524 42.2278 136.944 41.9488 135.935 41.9488C134.319 41.9488 132.829 42.8073 132.829 45.1037V51.6665H129.75V39.2219L132.602 39.2266ZM125.056 43.9968C124.855 42.3816 123.592 41.5727 121.825 41.5727C120.16 41.5727 118.795 42.3816 118.341 43.9968H125.056ZM118.292 46.5463C118.493 48.0859 119.831 49.1975 122.002 49.1975C123.138 49.1975 124.628 48.767 125.335 48.0363L127.302 49.9803C125.99 51.3425 123.845 52 121.95 52C117.66 52 115.108 49.3488 115.108 45.3615C115.108 41.5751 117.684 38.8482 121.723 38.8482C125.888 38.8482 128.49 41.4237 128.009 46.5463H118.292ZM104.712 34V40.9153C105.823 39.4773 107.186 39.0469 108.6 39.0469C112.133 39.0469 113.699 41.445 113.699 45.106V51.6689H110.62V45.132C110.62 42.8593 109.432 41.9015 107.791 41.9015C105.972 41.9015 104.712 43.4411 104.712 45.3094V51.6713H101.633V34.0024L104.712 34ZM96.5337 35.717V39.2503H99.9677V41.9015H96.5101V47.2771C96.5101 48.4643 97.1675 49.0438 98.1253 49.0438C98.6054 49.0438 99.1612 48.8924 99.6153 48.6654L100.474 51.2905C99.5916 51.6429 98.8585 51.7942 97.9243 51.8203C95.2235 51.922 93.4568 50.38 93.4568 47.2771V41.9015H91.1344V39.2503H93.4568V36.0457L96.5337 35.717ZM88.0268 43.9968C87.8258 42.3816 86.5629 41.5727 84.7962 41.5727C83.1313 41.5727 81.7667 42.3816 81.3126 43.9968H88.0268ZM81.2629 46.5463C81.4639 48.0859 82.8025 49.1975 84.9736 49.1975C86.1088 49.1975 87.5987 48.767 88.3059 48.0363L90.2736 49.9803C88.961 51.3425 86.8159 52 84.9216 52C80.6291 52 78.0796 49.3488 78.0796 45.3615C78.0796 41.5751 80.6551 38.8482 84.6922 38.8482C88.8569 38.8482 91.4561 41.4237 90.9783 46.5463H81.2629Z" fill="white"/>
</svg>
