<svg width="160" height="88" viewBox="0 0 160 88" fill="none" xmlns="http://www.w3.org/2000/svg">
<path fill-rule="evenodd" clip-rule="evenodd" d="M78.7155 38.0776C78.6629 42.4695 82.7276 44.9162 85.7907 46.3762C88.9375 47.8701 89.9934 48.829 89.9813 50.1649C89.9577 52.2114 87.47 53.1132 85.1441 53.1483C81.0825 53.2103 78.7244 52.0773 76.8454 51.2224L75.3826 57.9039C77.269 58.7493 80.7545 59.4866 84.3682 59.5237C92.8578 59.5237 98.409 55.4318 98.4361 49.0912C98.4718 41.0455 87.0367 40.6014 87.1153 37.0061C87.1413 35.9131 88.2072 34.7506 90.5424 34.4521C91.6993 34.3058 94.8925 34.1917 98.5089 35.8168L99.9288 29.3515C97.9831 28.6625 95.483 28 92.3688 28C84.3825 28 78.7608 32.1444 78.7155 38.0776ZM113.58 28.5597C112.029 28.5597 110.721 29.4399 110.141 30.7959L98.0152 59.049H106.499L108.185 54.4938H118.55L119.527 59.049H127L120.477 28.5597H113.58ZM114.765 36.7948L117.213 48.2428H110.511L114.765 36.7948ZM68.4364 28.5597L61.7518 59.049H69.8326L76.5148 28.5597H68.4364ZM56.4799 28.5597L48.0692 49.3112L44.6673 31.6674C44.2689 29.6977 42.6918 28.5597 40.9406 28.5597H27.1905L27 29.4437C29.8219 30.0431 33.0294 31.0091 34.972 32.0386C36.1614 32.669 36.5002 33.2189 36.8913 34.7166L43.3342 59.049H51.8749L64.9668 28.5597H56.4799Z" fill="#1E76D7"/>
</svg>
