<svg width="36" height="40" viewBox="0 0 36 40" fill="none" xmlns="http://www.w3.org/2000/svg">
<path fill-rule="evenodd" clip-rule="evenodd" d="M16.7296 0H33.3225C34.6877 0 35.8429 1.16266 35.8429 2.53672V29.0666C35.8429 30.4407 34.6877 31.6033 33.3225 31.6033H16.7296V0ZM16.7296 26.847V23.7818C17.2547 23.7818 17.7798 23.7818 18.4099 23.7818C21.9805 23.7818 25.2361 22.8305 27.5465 21.2451L22.9257 21.5621C22.5056 21.5621 22.0855 21.4565 21.7705 21.1394C21.4554 20.8223 21.3504 20.3995 21.3504 19.9767V19.871C21.4554 19.1311 22.0855 18.4969 22.8207 18.4969H33.6375C34.2676 18.4969 34.6877 18.814 35.0028 19.2368C35.3178 19.6596 35.4228 20.1881 35.3178 20.7166L33.5325 27.1641C33.3225 28.1154 32.2723 28.7495 31.3271 28.5381L30.802 28.4324C30.1719 28.3267 29.7519 28.0097 29.4368 27.4812C29.1218 26.9527 29.1218 26.4242 29.3318 25.8957L29.9619 23.8875C27.0214 25.79 22.9257 26.9527 18.5149 26.9527C17.8848 26.9527 17.2547 26.9527 16.7296 26.847ZM16.7296 7.29308V5.07345C17.2547 5.07345 17.8848 5.07345 18.5149 5.07345C22.5056 5.07345 26.0762 5.91902 29.0167 7.50447C29.3318 7.71587 29.5418 8.03296 29.6468 8.45574C29.6468 8.87853 29.5418 9.19562 29.2268 9.51271L29.1218 9.72411C28.5967 10.1469 27.9666 10.1469 27.5465 9.8298C25.2361 8.24435 21.9805 7.18738 18.4099 7.18738C17.7798 7.18738 17.2547 7.29308 16.7296 7.29308Z" fill="#2A2E37"/>
<path fill-rule="evenodd" clip-rule="evenodd" d="M16.7295 5.07339V7.29303C10.5335 7.82151 5.80767 11.3095 5.80767 15.5374C5.80767 19.7653 10.5335 23.1476 16.7295 23.7817V26.8469C8.43312 26.3185 1.922 21.6678 1.922 15.9602C1.922 10.3582 8.43312 5.70758 16.7295 5.07339Z" fill="#2A2E37"/>
<path fill-rule="evenodd" clip-rule="evenodd" d="M5.80768 37.0996H2.4471V37.8395H4.96753C4.86252 38.2623 4.44244 38.6851 4.23241 38.8965C3.81233 39.1079 3.39226 39.2135 2.86717 39.2135C0.871828 39.0022 0.451755 36.254 2.13205 35.3028C2.76215 34.9857 3.49728 34.9857 4.12739 35.3028C4.86252 35.8313 3.91735 35.7256 5.49262 35.7256C5.38761 35.1971 4.7575 34.6686 4.23241 34.4572C3.49728 34.1401 2.65714 34.1401 2.02703 34.4572C0.871828 34.88 -0.073335 36.254 0.346737 37.8395C0.661792 39.1079 1.92201 40.1648 3.49728 39.9534C4.54746 39.8477 5.28259 39.1079 5.59764 38.2623C5.70266 37.9452 5.9127 37.4167 5.80768 37.0996Z" fill="#2A2E37"/>
<path fill-rule="evenodd" clip-rule="evenodd" d="M29.6468 36.8881V35.6198C30.1719 35.5141 30.907 35.6198 30.802 36.254C30.802 36.8881 30.1719 36.8881 29.6468 36.8881ZM28.2816 39.8477H29.6468V38.1565C29.6468 38.1565 30.487 39.6363 30.697 39.8477H32.2723C32.2723 39.742 31.1171 38.2622 31.0121 38.0508C31.1171 37.9451 31.3271 37.9451 31.6422 37.628C31.8522 37.4166 31.9572 37.2052 32.0622 36.8881C32.4823 35.8312 32.0622 34.4571 30.487 34.3514C29.7518 34.3514 29.0167 34.3514 28.2816 34.3514V39.8477Z" fill="#2A2E37"/>
<path fill-rule="evenodd" clip-rule="evenodd" d="M22.9257 37.8395C21.0354 37.8395 21.6655 37.7338 21.2454 38.1566C20.9303 38.5794 20.4052 38.7908 19.8802 38.5794C18.4099 38.1566 18.4099 36.0427 19.8802 35.7256C20.5103 35.5142 20.9303 35.7256 21.2454 36.0427C21.7705 36.5711 21.0354 36.4654 23.0307 36.4654C22.9257 36.1484 22.7156 35.7256 22.6106 35.5142C22.0855 34.6686 21.0354 34.1401 19.8802 34.2458C18.5149 34.3515 17.3597 35.6199 17.3597 37.0996C17.4647 38.5794 18.4099 39.742 19.7751 39.9534C20.9303 40.1648 21.9805 39.6363 22.6106 38.7908C22.7156 38.5794 22.9257 38.1566 22.9257 37.8395Z" fill="#2A2E37"/>
<path fill-rule="evenodd" clip-rule="evenodd" d="M11.1635 39.8477H11.8986V35.197C12.0037 35.3027 13.0538 38.1565 13.2639 38.685C13.2639 38.8964 13.5789 39.742 13.684 39.8477H14.209C14.4191 39.3192 14.8392 38.1565 15.1542 37.5223C15.2592 37.0995 15.4693 36.6768 15.5743 36.3597L15.9944 35.197V39.8477H16.7295V34.3514H15.5743C15.3642 34.8799 14.6291 36.8881 14.4191 37.5223C14.3141 37.628 13.999 38.4736 13.894 38.5793L12.3187 34.3514H11.1635V39.8477Z" fill="#2A2E37"/>
<path fill-rule="evenodd" clip-rule="evenodd" d="M25.3411 36.254C25.4461 36.3597 25.8662 37.8394 25.8662 37.9451H24.816L25.3411 36.254ZM22.7156 39.8477H24.1859L24.5009 39.1078H26.2862L26.4963 39.8477H28.0715C27.9665 39.742 27.0214 37.3109 27.0214 37.0995C26.8113 36.6768 26.6013 36.1483 26.4963 35.7255C26.3912 35.5141 25.9712 34.4571 25.8662 34.3514H24.816L23.7658 37.0995C23.6608 37.4166 22.7156 39.742 22.7156 39.8477Z" fill="#2A2E37"/>
<path fill-rule="evenodd" clip-rule="evenodd" d="M35.8428 36.4654H34.1626V35.6198H35.8428C35.8428 35.4084 35.8428 34.5628 35.8428 34.3514H32.9023V39.8477H35.8428V38.685H34.1626V37.7337H35.8428V36.4654Z" fill="#2A2E37"/>
<path fill-rule="evenodd" clip-rule="evenodd" d="M8.22314 35.4084C8.32815 35.6198 8.95826 37.4166 8.95826 37.5223H7.48801C7.38299 37.4166 8.11812 35.5141 8.22314 35.4084ZM5.7027 39.8477H6.54284L7.17295 38.2622H9.27332C9.37834 38.5793 9.48335 38.7907 9.58837 39.1078C9.58837 39.3192 9.79841 39.742 9.90343 39.8477H10.7436C10.7436 39.742 9.79841 37.4166 9.69339 37.0995C9.58837 36.7824 8.64321 34.4571 8.53819 34.3514H7.80306L5.7027 39.8477Z" fill="#2A2E37"/>
<path fill-rule="evenodd" clip-rule="evenodd" d="M35.8428 36.4654V37.7337H34.1625V38.685H35.8428V39.8477H32.9023V34.3514H35.8428C35.8428 34.5628 35.8428 35.4084 35.8428 35.6198C35.8428 35.5141 35.8428 35.5141 35.8428 35.3027C35.8428 35.0913 35.8428 34.4571 35.8428 34.3514H32.9023C32.7973 34.4571 32.7973 39.742 32.7973 39.9534C33.0073 39.9534 35.6328 39.9534 35.8428 39.9534V38.685H34.2676V37.7337H35.8428C35.8428 37.5223 35.8428 37.3109 35.8428 37.0995C35.8428 36.9938 35.9479 36.5711 35.8428 36.4654Z" fill="#2A2E37"/>
</svg>
