<svg width="160" height="88" viewBox="0 0 160 88" fill="none" xmlns="http://www.w3.org/2000/svg">
<path d="M120 38.0571C116.537 38.0921 113.074 38.1347 109.61 38.1623C107.672 38.1773 105.735 38.1648 103.586 38.1648C103.586 47.0099 103.586 55.7724 103.586 64.5749C101.454 64.5749 99.5359 64.5749 97.4464 64.5749C97.4464 63.9736 97.4464 63.4499 97.4464 62.9237C97.4464 55.1209 97.4414 47.3156 97.4489 39.5129C97.4489 38.7662 97.5036 38.1448 96.4079 38.1473C84.6067 38.1849 72.8079 38.1798 61.0067 38.2074C60.3582 38.2099 59.685 38.3202 59.0688 38.5156C57.9334 38.8764 57.2999 39.6833 57.2999 40.9261C57.3023 45.7822 57.3073 50.6382 57.3073 55.4943C57.3073 56.7922 57.9707 57.6166 59.1632 57.9699C59.7868 58.1553 60.4601 58.2455 61.111 58.248C68.6216 58.2781 76.1346 58.2706 83.6452 58.3157C84.5918 58.3207 84.8551 57.9849 84.8402 57.0904C84.8029 54.6423 84.7955 52.1917 84.8576 49.7437C84.8849 48.6813 84.4725 48.4207 83.4787 48.4282C77.0812 48.4758 70.6837 48.4683 64.2862 48.4758C63.9235 48.4758 63.5582 48.4407 63.0936 48.4156C63.0936 46.4837 63.0936 44.6095 63.0936 42.6651C63.444 42.6375 63.7222 42.5949 64.0005 42.5949C71.7595 42.6049 79.5185 42.6174 87.2775 42.6325C88.5843 42.635 89.7545 42.9858 90.4452 44.1885C90.721 44.6696 90.9098 45.276 90.9147 45.8273C90.952 51.846 90.947 57.8647 90.9495 63.8834C90.9495 64.0462 90.9023 64.2066 90.8601 64.4847C90.3831 64.5248 89.9036 64.6025 89.4216 64.605C80.1346 64.6225 70.8477 64.6702 61.5632 64.61C59.7297 64.5975 57.8415 64.3594 56.075 63.8708C52.8999 62.9963 51.0067 60.6184 50.9446 57.3234C50.8328 51.2245 50.8129 45.1206 50.9545 39.0243C51.0415 35.2532 53.752 32.7024 57.8589 32.1311C59.039 31.9657 60.239 31.878 61.4315 31.878C80.952 31.8504 100.475 31.8404 119.995 31.8279C120 33.9051 120 35.9798 120 38.0571Z" fill="#BE1E2D"/>
<path d="M46.6112 33.8624H40V64.3919H46.6112V33.8624Z" fill="#D6D6D6"/>
<path d="M46.6112 24H40V29.7531H46.6112V24Z" fill="#D6D6D6"/>
<path d="M55.9387 25.6912C55.8269 25.3504 55.5536 25.1124 55.1188 24.9771C54.8753 24.9019 54.607 24.8643 54.3089 24.8643C53.7399 24.8643 53.2729 25.0147 52.9076 25.3179C52.5424 25.6211 52.3586 26.0746 52.3586 26.6835C52.3586 27.2949 52.5573 27.7284 52.9524 27.9814C53.3474 28.2345 53.7996 28.3623 54.3039 28.3623C54.7983 28.3623 55.2033 28.2621 55.5213 28.0616C55.8368 27.8612 56.0331 27.5981 56.1052 27.2748H54.4729V26.4429H57.4145V29.1165H56.4381L56.289 28.4951C56.0058 28.7306 55.7499 28.896 55.5238 28.9937C55.1337 29.1616 54.6542 29.2468 54.0878 29.2468C53.1511 29.2468 52.3859 29.0188 51.7896 28.5603C51.166 28.1017 50.8555 27.4728 50.8555 26.676C50.8555 25.8691 51.171 25.2227 51.7996 24.7365C52.4281 24.2504 53.2604 24.0074 54.294 24.0074C55.1909 24.0074 55.9114 24.1678 56.4555 24.4885C56.9996 24.8092 57.3126 25.2101 57.3921 25.6912H55.9387Z" fill="#D6D6D6"/>
<path d="M60.8401 24.1353H62.5097L65.0066 29.1166H63.4066L62.9395 28.0918H60.3407L59.8612 29.1166H58.3184L60.8401 24.1353ZM60.7432 27.2348H62.5519L61.66 25.2753L60.7432 27.2348Z" fill="#D6D6D6"/>
<path d="M70.5874 24.1353H72.7092V29.1166H71.3352V25.7489C71.3352 25.6512 71.3377 25.5159 71.3402 25.3405C71.3427 25.1651 71.3452 25.0323 71.3452 24.9371L70.0085 29.1191H68.575L67.2458 24.9371C67.2458 25.0323 67.2483 25.1676 67.2508 25.3405C67.2533 25.5159 67.2557 25.6512 67.2557 25.7489V29.1191H65.8818V24.1353H68.0284L69.3129 28.0517L70.5874 24.1353Z" fill="#D6D6D6"/>
<path d="M75.4219 29.1166H73.9561V24.1353H75.4219V29.1166Z" fill="#D6D6D6"/>
<path d="M76.7754 24.1353H78.3207L81.1232 27.6082V24.1353H82.4971V29.1166H81.0214L78.1493 25.5836V29.1191H76.7754V24.1353Z" fill="#D6D6D6"/>
<path d="M88.6296 25.6913C88.5178 25.3505 88.2446 25.1125 87.8098 24.9772C87.5663 24.902 87.298 24.8644 86.9998 24.8644C86.4309 24.8644 85.9638 25.0147 85.5986 25.3179C85.2334 25.6211 85.0495 26.0747 85.0495 26.6835C85.0495 27.2949 85.2483 27.7284 85.6433 27.9815C86.0383 28.2346 86.4905 28.3624 86.9949 28.3624C87.4893 28.3624 87.8942 28.2621 88.2123 28.0617C88.5278 27.8612 88.7241 27.5981 88.7961 27.2749H87.1638V26.443H90.1029V29.1166H89.1265L88.9775 28.4952C88.6942 28.7307 88.4383 28.8961 88.2123 28.9938C87.8222 29.1617 87.3427 29.2469 86.7762 29.2469C85.8396 29.2469 85.0744 29.0189 84.4781 28.5603C83.8545 28.1018 83.5439 27.4728 83.5439 26.676C83.5439 25.8692 83.8595 25.2227 84.488 24.7366C85.1166 24.2505 85.9489 24.0074 86.9824 24.0074C87.8793 24.0074 88.5998 24.1678 89.1439 24.4885C89.688 24.8093 90.0011 25.2102 90.0806 25.6913H88.6296Z" fill="#D6D6D6"/>
<path d="M99.3667 24.1353V25.0173H97.2549V29.1166H95.7692V25.0173H93.6475V24.1353H99.3667Z" fill="#D6D6D6"/>
<path d="M105.449 25.0173H101.712V26.0747H105.141V26.9391H101.712V28.2196H105.621V29.1141H100.271V24.1353H105.449V25.0173Z" fill="#D6D6D6"/>
<path d="M107.444 24.6566C108.013 24.2457 108.736 24.0402 109.613 24.0402C110.788 24.0402 111.647 24.3158 112.192 24.8646C112.492 25.1728 112.654 25.4835 112.676 25.7942H111.2C111.106 25.5562 110.987 25.3758 110.84 25.253C110.577 25.0375 110.189 24.9297 109.672 24.9297C109.146 24.9297 108.733 25.0826 108.43 25.3883C108.127 25.694 107.975 26.125 107.975 26.6837C107.975 27.2425 108.134 27.661 108.455 27.9391C108.775 28.2172 109.183 28.3576 109.675 28.3576C110.182 28.3576 110.567 28.2373 110.833 27.9992C110.979 27.8714 111.101 27.6785 111.198 27.4204H112.664C112.537 27.9642 112.214 28.4052 111.695 28.7459C111.175 29.0867 110.51 29.2571 109.697 29.2571C108.693 29.2571 107.903 29.0266 107.327 28.568C106.753 28.107 106.465 27.473 106.465 26.6687C106.465 25.7967 106.79 25.1277 107.444 24.6566Z" fill="#D6D6D6"/>
<path d="M113.844 29.1166V24.1353H115.31V26.0346H118.052V24.1353H119.518V29.1166H118.052V26.8915H115.31V29.1166H113.844Z" fill="#D6D6D6"/>
</svg>
