<svg width="148" height="40" viewBox="0 0 148 40" fill="none" xmlns="http://www.w3.org/2000/svg">
<path d="M4.63162 26.468C4.44634 26.468 4.29475 26.4094 4.17685 26.2922C4.05895 26.1749 4 26.0241 4 25.8399V14.0304C4 13.8461 4.05895 13.6954 4.17685 13.5781C4.29475 13.4608 4.44634 13.4022 4.63162 13.4022H7.38546C7.57073 13.4022 7.72232 13.4608 7.84022 13.5781C7.95813 13.6954 8.01708 13.8461 8.01708 14.0304V14.8847C8.35394 14.4324 8.82554 14.0388 9.4319 13.7037C10.0382 13.352 10.7541 13.1677 11.5794 13.1509C13.5163 13.1174 14.8469 13.8461 15.5712 15.337C15.9586 14.7004 16.5144 14.1811 17.2387 13.7791C17.9629 13.3603 18.7545 13.1509 19.6135 13.1509C20.4894 13.1509 21.2726 13.352 21.9632 13.754C22.6706 14.1393 23.2348 14.7423 23.6559 15.5631C24.077 16.3672 24.2875 17.4141 24.2875 18.7039V25.8399C24.2875 26.0241 24.2201 26.1749 24.0854 26.2922C23.9675 26.4094 23.8243 26.468 23.6559 26.468H20.7252C20.5399 26.468 20.3799 26.4094 20.2452 26.2922C20.1273 26.1749 20.0683 26.0241 20.0683 25.8399V18.8798C20.0683 18.2935 19.9841 17.8329 19.8157 17.4978C19.6472 17.1461 19.4198 16.8948 19.1335 16.7441C18.8472 16.5933 18.5187 16.5179 18.1482 16.5179C17.845 16.5179 17.5418 16.5933 17.2387 16.7441C16.9523 16.8948 16.7165 17.1461 16.5313 17.4978C16.3628 17.8329 16.2786 18.2935 16.2786 18.8798V25.8399C16.2786 26.0241 16.2197 26.1749 16.1018 26.2922C15.9839 26.4094 15.8323 26.468 15.647 26.468H12.7163C12.531 26.468 12.3794 26.4094 12.2615 26.2922C12.1436 26.1749 12.0847 26.0241 12.0847 25.8399V18.8798C12.0847 18.2935 11.992 17.8329 11.8068 17.4978C11.6215 17.1461 11.3857 16.8948 11.0994 16.7441C10.813 16.5933 10.493 16.5179 10.1393 16.5179C9.83613 16.5179 9.53295 16.5933 9.22978 16.7441C8.94345 16.8948 8.70764 17.1461 8.52237 17.4978C8.35394 17.8329 8.26972 18.2851 8.26972 18.8547V25.8399C8.26972 26.0241 8.20235 26.1749 8.06761 26.2922C7.9497 26.4094 7.79812 26.468 7.61284 26.468H4.63162Z" fill="#1889E7"/>
<path d="M31.0594 26.7193C30.1499 26.7193 29.333 26.5518 28.6087 26.2168C27.9013 25.865 27.3371 25.396 26.916 24.8097C26.4949 24.2234 26.2844 23.5617 26.2844 22.8247C26.2844 21.6354 26.7728 20.6973 27.7497 20.0105C28.7266 19.307 30.0236 18.8296 31.6405 18.5783L34.7986 18.1009V17.7491C34.7986 17.1461 34.6722 16.6854 34.4196 16.3672C34.167 16.0489 33.7038 15.8897 33.03 15.8897C32.5584 15.8897 32.171 15.9819 31.8679 16.1661C31.5815 16.3504 31.3542 16.6017 31.1857 16.9199C31.0341 17.1377 30.8236 17.2466 30.5541 17.2466H27.7245C27.5392 17.2466 27.396 17.1963 27.295 17.0958C27.1939 16.9786 27.1518 16.8446 27.1687 16.6938C27.1687 16.3923 27.2781 16.0489 27.4971 15.6636C27.7329 15.2616 28.0866 14.8679 28.5582 14.4827C29.0298 14.0974 29.6362 13.7791 30.3773 13.5278C31.1184 13.2766 32.011 13.1509 33.0553 13.1509C34.1501 13.1509 35.0849 13.2766 35.8597 13.5278C36.6345 13.7791 37.2577 14.1309 37.7293 14.5832C38.2177 15.0354 38.5798 15.5715 38.8156 16.1913C39.0514 16.7943 39.1693 17.4643 39.1693 18.2014V25.8399C39.1693 26.0241 39.102 26.1749 38.9672 26.2922C38.8493 26.4094 38.7062 26.468 38.5377 26.468H35.607C35.4218 26.468 35.2702 26.4094 35.1523 26.2922C35.0344 26.1749 34.9754 26.0241 34.9754 25.8399V24.9604C34.7565 25.2787 34.4617 25.5719 34.0912 25.8399C33.7206 26.1079 33.2827 26.3173 32.7774 26.468C32.2889 26.6355 31.7163 26.7193 31.0594 26.7193ZM32.2468 23.8549C32.7353 23.8549 33.1732 23.7544 33.5606 23.5534C33.9648 23.3356 34.2764 23.0089 34.4954 22.5734C34.7312 22.1211 34.8491 21.56 34.8491 20.8899V20.5382L32.7016 20.9151C31.91 21.0491 31.3289 21.2585 30.9583 21.5432C30.6046 21.8112 30.4278 22.1295 30.4278 22.498C30.4278 22.7828 30.512 23.0257 30.6804 23.2267C30.8489 23.4277 31.0678 23.5869 31.3373 23.7041C31.6068 23.8046 31.91 23.8549 32.2468 23.8549Z" fill="#1889E7"/>
<path d="M48.4628 31.9959C47.1659 31.9959 46.0879 31.8284 45.2289 31.4934C44.3868 31.1583 43.713 30.7563 43.2077 30.2873C42.7193 29.8183 42.3656 29.3492 42.1466 28.8802C41.9277 28.4279 41.8098 28.0678 41.7929 27.7997C41.7761 27.6155 41.835 27.4647 41.9698 27.3475C42.1045 27.2302 42.2645 27.1716 42.4498 27.1716H45.6584C45.81 27.1716 45.9363 27.2051 46.0374 27.2721C46.1553 27.3558 46.2479 27.4899 46.3153 27.6741C46.3995 27.8584 46.509 28.051 46.6437 28.252C46.7953 28.453 46.9974 28.6122 47.2501 28.7294C47.5196 28.8634 47.8817 28.9304 48.3365 28.9304C48.8418 28.9304 49.2628 28.8467 49.5997 28.6792C49.9366 28.5284 50.1892 28.2688 50.3576 27.9003C50.5261 27.5485 50.6103 27.0711 50.6103 26.468V24.7846C50.2229 25.2033 49.726 25.5467 49.1197 25.8147C48.5133 26.066 47.7806 26.1916 46.9216 26.1916C46.0626 26.1916 45.3047 26.066 44.6478 25.8147C43.9909 25.5635 43.4435 25.1866 43.0056 24.6841C42.5677 24.1815 42.2224 23.5701 41.9698 22.8498C41.734 22.1295 41.5908 21.3003 41.5403 20.3623C41.5234 19.9268 41.5234 19.4912 41.5403 19.0557C41.5908 18.1511 41.734 17.3387 41.9698 16.6184C42.2056 15.8981 42.5424 15.2783 42.9804 14.7591C43.4351 14.2398 43.9909 13.8461 44.6478 13.5781C45.3047 13.2933 46.0626 13.1509 46.9216 13.1509C47.8312 13.1509 48.6059 13.3268 49.246 13.6786C49.9029 14.0136 50.4418 14.4408 50.8629 14.9601V14.0304C50.8629 13.8629 50.9219 13.7205 51.0398 13.6032C51.1577 13.4692 51.3093 13.4022 51.4945 13.4022H54.4C54.5852 13.4022 54.7368 13.4692 54.8547 13.6032C54.9895 13.7205 55.0569 13.8629 55.0569 14.0304V26.1163C55.0569 27.3893 54.7958 28.4614 54.2737 29.3325C53.7515 30.2035 53.002 30.8652 52.0251 31.3175C51.0482 31.7697 49.8608 31.9959 48.4628 31.9959ZM48.2859 22.9252C48.8249 22.9252 49.2628 22.8079 49.5997 22.5734C49.9366 22.3389 50.1808 22.0374 50.3324 21.6689C50.5008 21.3003 50.5934 20.9067 50.6103 20.4879C50.6271 20.3037 50.6355 20.044 50.6355 19.709C50.6355 19.374 50.6271 19.1227 50.6103 18.9552C50.5934 18.5197 50.5008 18.1176 50.3324 17.7491C50.1808 17.3806 49.9366 17.0874 49.5997 16.8697C49.2628 16.6352 48.8249 16.5179 48.2859 16.5179C47.7301 16.5179 47.2838 16.6352 46.9469 16.8697C46.6269 17.1042 46.3911 17.4225 46.2395 17.8245C46.1048 18.2265 46.0205 18.6704 45.9869 19.1562C45.97 19.5247 45.97 19.9016 45.9869 20.2869C46.0205 20.7727 46.1048 21.2166 46.2395 21.6186C46.3911 22.0206 46.6269 22.3389 46.9469 22.5734C47.2838 22.8079 47.7301 22.9252 48.2859 22.9252Z" fill="#1889E7"/>
<path d="M58.6644 26.468C58.4791 26.468 58.3275 26.4094 58.2096 26.2922C58.0917 26.1749 58.0327 26.0241 58.0327 25.8399V14.0304C58.0327 13.8461 58.0917 13.6954 58.2096 13.5781C58.3275 13.4608 58.4791 13.4022 58.6644 13.4022H61.6456C61.814 13.4022 61.9572 13.4608 62.0751 13.5781C62.2098 13.6954 62.2772 13.8461 62.2772 14.0304V25.8399C62.2772 26.0241 62.2098 26.1749 62.0751 26.2922C61.9572 26.4094 61.814 26.468 61.6456 26.468H58.6644ZM58.6391 11.5177C58.4538 11.5177 58.3022 11.4591 58.1843 11.3418C58.0664 11.2246 58.0075 11.0738 58.0075 10.8896V8.65329C58.0075 8.46903 58.0664 8.31827 58.1843 8.20101C58.3022 8.067 58.4538 8 58.6391 8H61.6456C61.8309 8 61.9825 8.067 62.1004 8.20101C62.2351 8.31827 62.3025 8.46903 62.3025 8.65329V10.8896C62.3025 11.0738 62.2351 11.2246 62.1004 11.3418C61.9825 11.4591 61.8309 11.5177 61.6456 11.5177H58.6391Z" fill="#1889E7"/>
<path d="M71.3987 26.7193C70.1523 26.7193 69.0491 26.4932 68.0891 26.0409C67.129 25.5886 66.3626 24.9353 65.79 24.081C65.2342 23.21 64.931 22.1714 64.8805 20.9653C64.8636 20.6973 64.8552 20.3623 64.8552 19.9603C64.8552 19.5415 64.8636 19.1981 64.8805 18.9301C64.931 17.7072 65.2342 16.6687 65.79 15.8144C66.3458 14.9433 67.1037 14.2816 68.0638 13.8294C69.0407 13.3771 70.1523 13.1509 71.3987 13.1509C72.5609 13.1509 73.5546 13.3185 74.38 13.6535C75.2053 13.9718 75.879 14.3738 76.4011 14.8596C76.9233 15.3453 77.3106 15.8479 77.5633 16.3672C77.8328 16.8697 77.976 17.3136 77.9928 17.6989C78.0096 17.8664 77.9507 18.0171 77.8159 18.1511C77.6812 18.2684 77.5296 18.327 77.3612 18.327H74.1526C73.9673 18.327 73.8241 18.2851 73.7231 18.2014C73.622 18.1176 73.5294 17.992 73.4452 17.8245C73.243 17.3052 72.982 16.9367 72.662 16.7189C72.3588 16.5012 71.963 16.3923 71.4745 16.3923C70.8008 16.3923 70.2787 16.61 69.9081 17.0456C69.5544 17.4811 69.3607 18.1511 69.327 19.0557C69.3102 19.7257 69.3102 20.3204 69.327 20.8397C69.3607 21.761 69.5544 22.431 69.9081 22.8498C70.2787 23.2686 70.8008 23.478 71.4745 23.478C71.9967 23.478 72.4093 23.3691 72.7125 23.1513C73.0157 22.9336 73.2599 22.565 73.4452 22.0458C73.5294 21.8783 73.622 21.7526 73.7231 21.6689C73.8241 21.5851 73.9673 21.5432 74.1526 21.5432H77.3612C77.5296 21.5432 77.6812 21.6102 77.8159 21.7442C77.9507 21.8615 78.0096 22.0039 77.9928 22.1714C77.976 22.4562 77.8917 22.7912 77.7401 23.1765C77.5886 23.545 77.3528 23.9386 77.0327 24.3574C76.7127 24.7762 76.2916 25.1698 75.7695 25.5384C75.2642 25.8901 74.6494 26.1749 73.9252 26.3927C73.2009 26.6104 72.3588 26.7193 71.3987 26.7193Z" fill="#1889E7"/>
<path d="M91.0916 21.4857C89.7307 21.4857 88.5705 21.3287 87.6109 21.0146C86.6513 20.6831 85.8662 20.2644 85.2555 19.7584C84.6449 19.235 84.1913 18.6855 83.8947 18.1097C83.5981 17.5165 83.441 16.9495 83.4236 16.4086C83.4236 16.2516 83.4759 16.1208 83.5806 16.0161C83.7027 15.9114 83.8423 15.8591 83.9993 15.8591H87.4015C87.6109 15.8591 87.7766 15.9027 87.8988 15.9899C88.0209 16.0597 88.1343 16.1818 88.239 16.3563C88.3786 16.6878 88.5792 16.9582 88.8409 17.1676C89.1201 17.3769 89.4515 17.5252 89.8354 17.6125C90.2192 17.6823 90.6379 17.7172 91.0916 17.7172C91.9814 17.7172 92.6705 17.5165 93.1591 17.1152C93.665 16.6965 93.918 16.1295 93.918 15.4142C93.918 14.664 93.6825 14.1318 93.2114 13.8178C92.7403 13.4863 92.0686 13.3205 91.1963 13.3205H88.2913C88.0994 13.3205 87.9424 13.2595 87.8202 13.1374C87.6981 13.0152 87.6371 12.8582 87.6371 12.6663V11.2008C87.6371 10.9914 87.6807 10.8082 87.7679 10.6512C87.8551 10.4942 87.9511 10.3808 88.0558 10.311L92.3478 6.6733H85.0723C84.8979 6.6733 84.7408 6.61224 84.6013 6.49011C84.4791 6.36798 84.4181 6.21096 84.4181 6.01905V3.55904C84.4181 3.36713 84.4791 3.2101 84.6013 3.08798C84.7408 2.96585 84.8979 2.90479 85.0723 2.90479H97.1108C97.3027 2.90479 97.4598 2.96585 97.5819 3.08798C97.7215 3.2101 97.7912 3.36713 97.7912 3.55904V5.78352C97.7912 5.97543 97.7476 6.1499 97.6604 6.30692C97.5732 6.44649 97.4772 6.5599 97.3725 6.64713L93.3946 10.3371L93.5778 10.3895C94.5723 10.5116 95.4621 10.782 96.2472 11.2008C97.0323 11.602 97.6517 12.1691 98.1053 12.9018C98.5589 13.6346 98.7857 14.568 98.7857 15.702C98.7857 16.8884 98.4455 17.9178 97.7651 18.7901C97.1021 19.645 96.1948 20.308 95.0433 20.7791C93.8918 21.2501 92.5746 21.4857 91.0916 21.4857Z" fill="#313131"/>
<path d="M113.126 37.0908C111.59 37.0908 110.238 36.8117 109.069 36.2534C107.9 35.6951 106.984 34.9274 106.321 33.9504C105.676 32.9559 105.353 31.8218 105.353 30.5482C105.353 30.0074 105.431 29.4752 105.588 28.9518C105.763 28.411 105.972 27.905 106.217 27.4339C106.461 26.9454 106.705 26.5179 106.949 26.1516C107.194 25.7677 107.394 25.4624 107.551 25.2356L112.157 19.0332C112.244 18.9459 112.358 18.8413 112.497 18.7191C112.637 18.5796 112.838 18.5098 113.099 18.5098H116.58C116.737 18.5098 116.868 18.5708 116.973 18.693C117.077 18.7976 117.13 18.9285 117.13 19.0855C117.13 19.1553 117.121 19.2251 117.104 19.2949C117.086 19.3472 117.06 19.3908 117.025 19.4257L113.492 24.2411C113.597 24.2062 113.719 24.1888 113.858 24.1888C114.015 24.1713 114.155 24.1626 114.277 24.1626C115.062 24.1975 115.839 24.372 116.606 24.686C117.374 25.0001 118.072 25.4275 118.7 25.9684C119.328 26.5092 119.825 27.1635 120.192 27.9312C120.575 28.6814 120.767 29.5276 120.767 30.4697C120.767 31.6735 120.453 32.7814 119.825 33.7934C119.197 34.7878 118.307 35.5904 117.156 36.201C116.022 36.7942 114.678 37.0908 113.126 37.0908ZM113.099 33.3223C113.605 33.3223 114.076 33.2176 114.513 33.0082C114.949 32.7814 115.298 32.4674 115.559 32.0661C115.839 31.6474 115.978 31.1327 115.978 30.522C115.978 29.9114 115.847 29.4054 115.586 29.0041C115.324 28.5854 114.975 28.2714 114.539 28.062C114.103 27.8526 113.623 27.748 113.099 27.748C112.576 27.748 112.087 27.8526 111.634 28.062C111.198 28.2714 110.849 28.5854 110.587 29.0041C110.325 29.4054 110.194 29.9114 110.194 30.522C110.194 31.1327 110.325 31.6474 110.587 32.0661C110.866 32.4674 111.224 32.7814 111.66 33.0082C112.096 33.2176 112.576 33.3223 113.099 33.3223Z" fill="#313131"/>
<path d="M134.624 21.5101C132.983 21.5101 131.614 21.2571 130.515 20.7511C129.416 20.2277 128.578 19.556 128.002 18.736C127.444 17.8986 127.147 17 127.113 16.0404C127.113 15.8834 127.165 15.7526 127.27 15.6479C127.374 15.5432 127.505 15.4909 127.662 15.4909H131.169C131.396 15.4909 131.57 15.5432 131.692 15.6479C131.832 15.7351 131.937 15.8485 132.006 15.9881C132.163 16.3894 132.364 16.7209 132.608 16.9826C132.87 17.2443 133.167 17.4362 133.498 17.5583C133.847 17.6805 134.231 17.7415 134.65 17.7415C135.138 17.7415 135.592 17.6368 136.011 17.4275C136.429 17.2181 136.761 16.9128 137.005 16.5115C137.267 16.0928 137.398 15.5955 137.398 15.0198C137.398 14.4964 137.275 14.0427 137.031 13.6589C136.804 13.2751 136.482 12.9698 136.063 12.7429C135.644 12.5161 135.173 12.4027 134.65 12.4027C134.231 12.4027 133.891 12.4551 133.629 12.5598C133.367 12.647 133.149 12.7604 132.975 12.9C132.8 13.0395 132.643 13.1617 132.504 13.2664C132.364 13.3536 132.207 13.3972 132.033 13.3972H128.604C128.447 13.3972 128.308 13.3449 128.186 13.2402C128.081 13.1181 128.029 12.9785 128.029 12.8215L128.971 3.68795C129.006 3.42625 129.102 3.23432 129.259 3.1122C129.416 2.97262 129.607 2.90283 129.834 2.90283H140.329C140.521 2.90283 140.678 2.9639 140.8 3.08603C140.922 3.20815 140.983 3.36518 140.983 3.5571V6.01712C140.983 6.20904 140.922 6.36607 140.8 6.48819C140.678 6.61032 140.521 6.67139 140.329 6.67139H132.739L132.399 10.0736C132.783 9.81185 133.228 9.60249 133.734 9.44546C134.257 9.271 134.964 9.18376 135.854 9.18376C136.691 9.18376 137.485 9.32334 138.235 9.60249C139.003 9.88164 139.683 10.2829 140.276 10.8063C140.887 11.3297 141.358 11.9578 141.69 12.6906C142.039 13.4059 142.213 14.2172 142.213 15.1245C142.213 16.3632 141.908 17.4624 141.297 18.422C140.704 19.3815 139.84 20.1405 138.706 20.6988C137.572 21.2396 136.211 21.5101 134.624 21.5101Z" fill="#313131"/>
<path d="M95.4798 32.1174C95.3479 30.4002 94.5484 29.3241 93.8431 28.3745C93.19 27.4953 92.6259 26.7362 92.6259 25.6163C92.6259 25.5263 92.5755 25.4441 92.4957 25.4029C92.4155 25.3614 92.3192 25.3682 92.2464 25.4211C91.1871 26.1791 90.3032 27.4567 89.9945 28.6757C89.7801 29.5243 89.7518 30.4784 89.7478 31.1085C88.7695 30.8996 88.5479 29.4363 88.5456 29.4203C88.5346 29.3444 88.4882 29.2784 88.4207 29.2423C88.3526 29.2067 88.2725 29.2041 88.2033 29.2383C88.152 29.2632 86.9442 29.8769 86.8739 32.3273C86.869 32.4088 86.8688 32.4906 86.8688 32.5723C86.8688 34.9529 88.8058 36.8898 91.1866 36.8898C91.1899 36.8901 91.1934 36.8905 91.1962 36.8898C91.1972 36.8898 91.1981 36.8898 91.1993 36.8898C93.5742 36.8831 95.5045 34.9487 95.5045 32.5723C95.5045 32.4526 95.4798 32.1174 95.4798 32.1174ZM91.1866 36.4101C90.393 36.4101 89.7473 35.7224 89.7473 34.877C89.7473 34.8482 89.7471 34.8191 89.7492 34.7836C89.7588 34.4271 89.8265 34.1837 89.9008 34.0218C90.0399 34.3207 90.2887 34.5954 90.6928 34.5954C90.8254 34.5954 90.9327 34.4882 90.9327 34.3556C90.9327 34.0141 90.9398 33.6201 91.0248 33.2645C91.1004 32.9492 91.2813 32.6138 91.5104 32.3448C91.6123 32.6939 91.8109 32.9763 92.0049 33.2521C92.2825 33.6465 92.5695 34.0544 92.6198 34.7498C92.6229 34.791 92.626 34.8325 92.626 34.877C92.6259 35.7224 91.9803 36.4101 91.1866 36.4101Z" fill="#BCBCBC"/>
<g clip-path="url(#clip0_45_71157)">
<path fill-rule="evenodd" clip-rule="evenodd" d="M113.333 7.20968C112.883 7.68502 112.45 8.25363 112.066 8.88114C113.319 9.3745 114.189 10.5648 114.189 11.9439C114.189 13.7606 112.65 15.2496 110.772 15.2496C108.894 15.2496 107.355 13.7606 107.355 11.9439C107.355 10.1273 108.894 8.63825 110.772 8.63825C110.893 8.63825 111.012 8.6442 111.129 8.65579C111.405 8.17881 111.72 7.70981 112.065 7.27313C110.386 7.08301 109.003 5.90006 108.608 5.53105C108.542 5.46927 108.538 5.37002 108.6 5.30369C109.009 4.86248 110.568 3.32772 112.465 3.27674C114.034 3.23515 115.423 4.16628 116.119 4.73216C116.86 4.58904 117.559 4.52816 118.084 4.50705C118.33 4.49713 118.53 4.69764 118.53 4.94438C118.53 5.19113 118.33 5.3904 118.084 5.39887C117.662 5.41336 117.132 5.45182 116.566 5.54306C116.184 6.10167 115.938 6.68437 115.852 7.26707C115.778 7.76694 115.826 8.224 115.909 8.63826C115.911 8.63826 115.912 8.63825 115.913 8.63825C117.791 8.63825 119.33 10.1273 119.33 11.9439C119.33 13.7606 117.791 15.2496 115.913 15.2496C115.182 15.2496 114.502 15.0259 113.944 14.6466C113.859 14.5887 113.849 14.4696 113.914 14.3899C114.458 13.7259 114.805 12.8865 114.805 11.9439C114.805 11.0293 114.485 10.1663 113.92 9.49894C113.852 9.41907 113.862 9.29735 113.948 9.23862C114.266 9.02322 114.623 8.85825 115.007 8.75623C114.918 8.27957 114.867 7.73501 114.959 7.14794C114.988 6.90704 115.041 6.66614 115.115 6.42703C114.611 6.75894 114.003 7.06425 113.333 7.20968ZM112.373 13.7308C111.972 14.0882 111.388 14.3264 110.987 14.2966C110.68 14.2668 110.649 14.0584 110.834 13.9393C110.857 13.9256 110.889 13.9078 110.928 13.8862L110.928 13.8862C111.144 13.7666 111.567 13.5318 111.88 13.2543C112.158 13.0074 112.402 12.676 112.558 12.4639L112.558 12.4639C112.608 12.3946 112.65 12.338 112.68 12.3013C112.803 12.1226 113.019 12.1822 113.05 12.48C113.05 12.8076 112.773 13.3734 112.373 13.7308ZM116.159 14.2966C116.56 14.3264 117.144 14.0882 117.545 13.7308C117.914 13.3734 118.222 12.8076 118.222 12.48C118.191 12.1822 117.975 12.1226 117.852 12.3013C117.822 12.338 117.78 12.3946 117.73 12.4639C117.574 12.676 117.33 13.0074 117.052 13.2543C116.739 13.5318 116.316 13.7666 116.1 13.8862C116.061 13.9078 116.029 13.9256 116.006 13.9393C115.821 14.0584 115.852 14.2668 116.159 14.2966Z" fill="#BCBCBC"/>
</g>
<g clip-path="url(#clip1_45_71157)">
<path d="M131.316 26.9867C131.193 26.9859 131.074 27.033 130.985 27.1182L128.585 29.4104C128.467 29.5234 128.537 29.7231 128.7 29.737L131.777 29.9997L133.034 26.9992L131.316 26.9867Z" fill="#BCBCBC"/>
<path d="M141.677 29.8281C141.84 29.8165 141.913 29.6176 141.796 29.5029L139.425 27.1775C139.337 27.0913 139.219 27.0426 139.095 27.0417L137.38 27.0292L138.596 30.0458L141.677 29.8281Z" fill="#BCBCBC"/>
<path d="M141.618 30.5593C141.736 30.4301 141.631 30.223 141.457 30.2421L138.7 30.5434L136.235 36.1535C136.192 36.2518 136.319 36.3351 136.392 36.2559L141.618 30.5593Z" fill="#BCBCBC"/>
<path d="M132.224 30.076L133.456 27.0015L136.896 27.0247L138.161 30.1176L132.224 30.076Z" fill="#BCBCBC"/>
<path d="M131.738 30.5434L128.981 30.2421C128.806 30.223 128.701 30.4301 128.82 30.5593L134.046 36.2559C134.118 36.3351 134.246 36.2518 134.202 36.1535L131.738 30.5434Z" fill="#BCBCBC"/>
<path d="M135.339 36.402C135.268 36.5433 135.066 36.5417 134.997 36.3994L132.222 30.6218L138.205 30.6634L135.339 36.402Z" fill="#BCBCBC"/>
</g>
<defs>
<clipPath id="clip0_45_71157">
<rect width="12.3478" height="12.3478" fill="white" transform="translate(107.169 2.90283)"/>
</clipPath>
<clipPath id="clip1_45_71157">
<rect width="14.2475" height="10.4481" fill="white" transform="translate(128.066 26.6426)"/>
</clipPath>
</defs>
</svg>
